<svg xmlns="http://www.w3.org/2000/svg" xmlns:xlink="http://www.w3.org/1999/xlink" viewBox="0 0 510.79 374.67"><defs><style>.cls-1{fill:none;}.cls-2{isolation:isolate;}.cls-3{clip-path:url(#clip-path);}.cls-4{fill:#f1f1f4;}.cls-5{fill:#e0f3ff;}.cls-6{fill:url(#Áåçûìÿííûé_ãðàäèåíò_29);}.cls-7{fill:url(#Áåçûìÿííûé_ãðàäèåíò_28);}.cls-8{fill:#e5e2ff;}.cls-9{fill:url(#Áåçûìÿííûé_ãðàäèåíò_28-2);}.cls-10,.cls-11{opacity:0.62;}.cls-10,.cls-11,.cls-69,.cls-70,.cls-71,.cls-72,.cls-73,.cls-74,.cls-87,.cls-88{mix-blend-mode:multiply;}.cls-10{fill:url(#Áåçûìÿííûé_ãðàäèåíò_27);}.cls-11{fill:url(#Áåçûìÿííûé_ãðàäèåíò_94);}.cls-12,.cls-87,.cls-88{opacity:0.5;}.cls-12{mix-blend-mode:screen;fill:url(#Áåçûìÿííûé_ãðàäèåíò_95);}.cls-13,.cls-36{fill:#fff;}.cls-14{fill:#010101;}.cls-15{fill:#7a7a7a;}.cls-16{fill:#fbf5f5;}.cls-17{fill-opacity:0.14;}.cls-18{fill:#e2bba6;}.cls-19{fill:#424242;}.cls-20{fill:#e3e3e3;}.cls-21{fill-opacity:0.12;}.cls-22{fill-opacity:0.06;}.cls-23{fill-opacity:0.11;}.cls-24{fill-opacity:0.09;}.cls-25,.cls-42{fill-opacity:0.12;}.cls-26{fill-opacity:0.08;}.cls-27{fill-opacity:0.07;}.cls-28{fill:#d7d7d7;}.cls-29,.cls-35,.cls-36,.cls-62,.cls-63,.cls-64,.cls-65{stroke:#000;}.cls-29,.cls-35,.cls-36,.cls-62,.cls-63{stroke-width:0.26px;}.cls-30{fill-opacity:0.18;}.cls-31{fill-opacity:0.15;}.cls-32{fill-opacity:0.15;}.cls-33{fill-opacity:0.19;}.cls-34{fill-opacity:0.29;}.cls-35{fill:#fff0f0;}.cls-37{fill:#890c0c;fill-opacity:0.16;}.cls-38{fill-opacity:0.14;}.cls-39{fill-opacity:0.04;}.cls-40{fill-opacity:0.05;}.cls-41{fill:#070707;fill-opacity:0.04;}.cls-42{fill:#050505;}.cls-43{fill-opacity:0.08;}.cls-44{fill-opacity:0.05;}.cls-45{fill-opacity:0.04;}.cls-46{fill:#cb0a0a;}.cls-47{fill:#1a0acb;fill-opacity:0.91;}.cls-48{fill:#01000b;fill-opacity:0.23;}.cls-49{fill-opacity:0.21;}.cls-50{fill-opacity:0.03;}.cls-51{fill-opacity:0.1;}.cls-52{fill-opacity:0.13;}.cls-53{fill-opacity:0.19;}.cls-54{fill-opacity:0.1;}.cls-55{fill-opacity:0.13;}.cls-56{fill:#dfb49c;}.cls-57{fill-opacity:0.06;}.cls-58{fill:#ffd90b;}.cls-59{fill-opacity:0.2;}.cls-60{fill-opacity:0.11;}.cls-61{fill-opacity:0.11;}.cls-62{fill:#b8293a;}.cls-63,.cls-64,.cls-65{fill:#ff2;}.cls-64{stroke-width:0.56px;}.cls-65{stroke-width:0.47px;}.cls-66{fill-opacity:0.19;}.cls-67{fill:#36d1f7;}.cls-67,.cls-69{opacity:0.6;}.cls-68{fill:#744ca2;}.cls-69{fill:url(#Áåçûìÿííûé_ãðàäèåíò_89);}.cls-70,.cls-71,.cls-72,.cls-73{opacity:0.3;}.cls-70{fill:url(#Áåçûìÿííûé_ãðàäèåíò_85);}.cls-71{fill:url(#Áåçûìÿííûé_ãðàäèåíò_85-2);}.cls-72{fill:url(#Áåçûìÿííûé_ãðàäèåíò_85-3);}.cls-73{fill:url(#Áåçûìÿííûé_ãðàäèåíò_85-4);}.cls-74{fill:#d1d4fb;}.cls-75,.cls-89{mix-blend-mode:soft-light;}.cls-76{opacity:0.81;fill:url(#Áåçûìÿííûé_ãðàäèåíò_115);}.cls-77{fill:#473da2;}.cls-78{fill:url(#Áåçûìÿííûé_ãðàäèåíò_302);}.cls-79{fill:url(#Áåçûìÿííûé_ãðàäèåíò_302-2);}.cls-80{fill:url(#Áåçûìÿííûé_ãðàäèåíò_322);}.cls-81{fill:url(#Áåçûìÿííûé_ãðàäèåíò_322-2);}.cls-82{fill:url(#Áåçûìÿííûé_ãðàäèåíò_25);}.cls-83{fill:url(#Áåçûìÿííûé_ãðàäèåíò_25-2);}.cls-84,.cls-86{opacity:0.73;}.cls-84{fill:url(#Áåçûìÿííûé_ãðàäèåíò_97);}.cls-85{fill:#953da2;}.cls-86{fill:url(#Áåçûìÿííûé_ãðàäèåíò_97-2);}.cls-87,.cls-88{fill:#601734;}.cls-88,.cls-89,.cls-93,.cls-94,.cls-95,.cls-96{fill-rule:evenodd;}.cls-89{fill:#b3d9ff;}.cls-90{fill:#ff1d9c;}.cls-91{fill:#6877ff;}.cls-92{fill:#4f31e0;}.cls-93{fill:url(#Áåçûìÿííûé_ãðàäèåíò_107);}.cls-94{fill:url(#Áåçûìÿííûé_ãðàäèåíò_206);}.cls-95{fill:url(#Áåçûìÿííûé_ãðàäèåíò_107-2);}.cls-96{fill:url(#Áåçûìÿííûé_ãðàäèåíò_206-2);}.cls-97{fill:#dff6fd;}.cls-98{fill:#c8effe;}.cls-99{fill:#596c76;}.cls-100{fill:#465a61;}.cls-101{fill:#97d729;}.cls-102{fill:#8bc727;}.cls-103{fill:#e6e7e8;}.cls-104{fill:#d4fbff;}.cls-105{fill:#fa759e;}.cls-106{fill:#6dc9f7;}.cls-107{fill:#ffd7e5;}.cls-108{fill:#3a2c60;}.cls-109{fill:#edf4fc;}.cls-110{fill:#fc657e;}.cls-111{fill:#f5c84c;}.cls-112{fill:#87d147;}.cls-113{fill:#70d6f9;}</style><clipPath id="clip-path" transform="translate(-51 -25)"><rect class="cls-1" width="600" height="400"/></clipPath><linearGradient id="Áåçûìÿííûé_ãðàäèåíò_29" x1="139.84" y1="275.2" x2="139.84" y2="204.01" gradientTransform="matrix(0.91, -0.42, 0.42, 0.91, -75.05, 53.74)" gradientUnits="userSpaceOnUse"><stop offset="0" stop-color="#dbccff"/><stop offset="1" stop-color="#d1bbff"/></linearGradient><linearGradient id="Áåçûìÿííûé_ãðàäèåíò_28" x1="139.83" y1="277.98" x2="139.83" y2="206.79" gradientTransform="matrix(0.91, -0.42, 0.42, 0.91, -75.05, 53.74)" gradientUnits="userSpaceOnUse"><stop offset="0" stop-color="#b5a6e7"/><stop offset="1" stop-color="#7760bf"/></linearGradient><linearGradient id="Áåçûìÿííûé_ãðàäèåíò_28-2" x1="139.83" y1="260.28" x2="139.83" y2="230.27" xlink:href="#Áåçûìÿííûé_ãðàäèåíò_28"/><linearGradient id="Áåçûìÿííûé_ãðàäèåíò_27" x1="135.57" y1="230.87" x2="144.09" y2="230.87" gradientTransform="matrix(0.91, -0.42, 0.42, 0.91, -75.05, 53.74)" gradientUnits="userSpaceOnUse"><stop offset="0" stop-color="#8b8be0"/><stop offset="1" stop-color="#a177b7"/></linearGradient><linearGradient id="Áåçûìÿííûé_ãðàäèåíò_94" x1="139.83" y1="232.85" x2="139.83" y2="227.69" gradientTransform="matrix(0.91, -0.42, 0.42, 0.91, -75.05, 53.74)" gradientUnits="userSpaceOnUse"><stop offset="0" stop-color="#fff"/><stop offset="1" stop-color="#a177b7"/></linearGradient><linearGradient id="Áåçûìÿííûé_ãðàäèåíò_95" x1="144.34" y1="263.34" x2="144.34" y2="230.26" gradientTransform="matrix(0.91, -0.42, 0.42, 0.91, -75.05, 53.74)" gradientUnits="userSpaceOnUse"><stop offset="0"/><stop offset="1" stop-color="#fff"/></linearGradient><linearGradient id="Áåçûìÿííûé_ãðàäèåíò_89" x1="351.8" y1="132.95" x2="528.85" y2="132.95" gradientUnits="userSpaceOnUse"><stop offset="0" stop-color="#9d68c2"/><stop offset="1" stop-color="#aec2ff"/></linearGradient><linearGradient id="Áåçûìÿííûé_ãðàäèåíò_85" x1="336.81" y1="174.82" x2="336.81" y2="121.42" gradientUnits="userSpaceOnUse"><stop offset="0" stop-color="#ccedff"/><stop offset="1" stop-color="#9d68c2"/></linearGradient><linearGradient id="Áåçûìÿííûé_ãðàäèåíò_85-2" x1="427.87" y1="148.78" x2="427.87" y2="125.26" xlink:href="#Áåçûìÿííûé_ãðàäèåíò_85"/><linearGradient id="Áåçûìÿííûé_ãðàäèåíò_85-3" x1="455.63" y1="148.78" x2="455.63" y2="125.26" xlink:href="#Áåçûìÿííûé_ãðàäèåíò_85"/><linearGradient id="Áåçûìÿííûé_ãðàäèåíò_85-4" x1="399.66" y1="148.78" x2="399.66" y2="125.26" xlink:href="#Áåçûìÿííûé_ãðàäèåíò_85"/><linearGradient id="Áåçûìÿííûé_ãðàäèåíò_115" x1="193.4" y1="375.37" x2="206.71" y2="269.36" gradientUnits="userSpaceOnUse"><stop offset="0" stop-color="#067eff"/><stop offset="1" stop-color="#3e37a0"/></linearGradient><linearGradient id="Áåçûìÿííûé_ãðàäèåíò_302" x1="504.25" y1="113.31" x2="504.25" y2="104.37" gradientUnits="userSpaceOnUse"><stop offset="0" stop-color="#459fff"/><stop offset="1" stop-color="#a96dff"/></linearGradient><linearGradient id="Áåçûìÿííûé_ãðàäèåíò_302-2" x1="84.26" y1="218.04" x2="84.26" y2="206.92" xlink:href="#Áåçûìÿííûé_ãðàäèåíò_302"/><linearGradient id="Áåçûìÿííûé_ãðàäèåíò_322" x1="466.37" y1="88.31" x2="466.37" y2="79.37" gradientUnits="userSpaceOnUse"><stop offset="0" stop-color="#b31a8f"/><stop offset="1" stop-color="#fe117e"/></linearGradient><linearGradient id="Áåçûìÿííûé_ãðàäèåíò_322-2" x1="178.2" y1="117.73" x2="178.2" y2="111.41" xlink:href="#Áåçûìÿííûé_ãðàäèåíò_322"/><linearGradient id="Áåçûìÿííûé_ãðàäèåíò_25" x1="389.86" y1="257.16" x2="389.86" y2="250.84" gradientUnits="userSpaceOnUse"><stop offset="0" stop-color="#8642a0"/><stop offset="1" stop-color="#6456c0"/></linearGradient><linearGradient id="Áåçûìÿííûé_ãðàäèåíò_25-2" x1="61.34" y1="288.33" x2="61.34" y2="282.68" xlink:href="#Áåçûìÿííûé_ãðàäèåíò_25"/><linearGradient id="Áåçûìÿííûé_ãðàäèåíò_97" x1="136.04" y1="282.77" x2="136.04" y2="236.11" gradientUnits="userSpaceOnUse"><stop offset="0" stop-color="#d906e3"/><stop offset="1" stop-color="#ff6df9"/></linearGradient><linearGradient id="Áåçûìÿííûé_ãðàäèåíò_97-2" x1="458.23" y1="348.82" x2="458.23" y2="290.45" xlink:href="#Áåçûìÿííûé_ãðàäèåíò_97"/><linearGradient id="Áåçûìÿííûé_ãðàäèåíò_107" x1="361.35" y1="63.1" x2="372.68" y2="21.01" gradientUnits="userSpaceOnUse"><stop offset="0" stop-color="#188dc1"/><stop offset="1" stop-color="#06bfe7"/></linearGradient><linearGradient id="Áåçûìÿííûé_ãðàäèåíò_206" x1="341.87" y1="58.24" x2="350.32" y2="26.86" gradientUnits="userSpaceOnUse"><stop offset="0" stop-color="#1852a0"/><stop offset="1" stop-color="#067ed3"/></linearGradient><linearGradient id="Áåçûìÿííûé_ãðàäèåíò_107-2" x1="121.92" y1="160.57" x2="129.65" y2="131.88" gradientTransform="matrix(-1, 0, 0, 1, 155.66, -25)" xlink:href="#Áåçûìÿííûé_ãðàäèåíò_107"/><linearGradient id="Áåçûìÿííûé_ãðàäèåíò_206-2" x1="108.65" y1="157.26" x2="114.41" y2="135.87" gradientTransform="matrix(-1, 0, 0, 1, 155.66, -25)" xlink:href="#Áåçûìÿííûé_ãðàäèåíò_206"/></defs><title>eu</title><g class="cls-2"><g id="illustration"><g class="cls-3"><path class="cls-4" d="M148.21,196.1q0-.37.36-.36l6.7.2a4.81,4.81,0,0,1,1.69.31,2.89,2.89,0,0,1,1.11.74,2.82,2.82,0,0,1,.59,1.14,4.89,4.89,0,0,1,.15,1.47l-.05,1.85a5.44,5.44,0,0,1-.24,1.46,3,3,0,0,1-.66,1.1,3,3,0,0,1-1.15.68,5.18,5.18,0,0,1-1.71.2l-3.61-.11-.75-2.12h-.09l-.07,2.09-2.53-.08Zm2.34,6.33,4.29.13a1.39,1.39,0,0,0,1-.29,1.6,1.6,0,0,0,.34-1.12l.05-1.5a1.69,1.69,0,0,0-.27-1.15,1.52,1.52,0,0,0-1-.33l-4.1-.12a.15.15,0,0,0-.14,0,.18.18,0,0,0,0,.12Z" transform="translate(-51 -25)"/><path class="cls-4" d="M162.45,199.93h-.09l-.08,2.68a.15.15,0,0,0,.16.18L170,203l-.07,2.32L160,205a.33.33,0,0,1-.35-.38l.25-8.21a.33.33,0,0,1,.37-.36l9.61.3c.24,0,.36.13.35.38l-.07,2.32-2.37.8h-.1l0-1.2c0-.09,0-.13-.12-.13l-5.07-.16a.18.18,0,0,0-.14,0,.27.27,0,0,0,0,.12l0,1.12,4.17.12,0,1.82-3.5-.1Z" transform="translate(-51 -25)"/><path class="cls-4" d="M179.21,199.77h-.1l0-1c0-.1,0-.15-.14-.15l-4.72-.14a.42.42,0,0,0-.36.1.46.46,0,0,0-.11.31v.22a.46.46,0,0,0,.07.34.76.76,0,0,0,.33.12l5.53.94a3.63,3.63,0,0,1,.89.26,1.75,1.75,0,0,1,.59.42,1.34,1.34,0,0,1,.31.63,3.34,3.34,0,0,1,.08.88l0,.71a3.12,3.12,0,0,1-.16,1,1.78,1.78,0,0,1-.46.7,2,2,0,0,1-.83.41,4.2,4.2,0,0,1-1.24.11l-8-.24.07-2.32,7.13.21c.22,0,.36,0,.43-.1a.66.66,0,0,0,.12-.41v-.24a.43.43,0,0,0-.07-.33.47.47,0,0,0-.3-.13l-5.34-.84a3.92,3.92,0,0,1-.92-.25,1.64,1.64,0,0,1-.62-.41,1.46,1.46,0,0,1-.34-.61,2.76,2.76,0,0,1-.08-.85v-.63a2.07,2.07,0,0,1,.57-1.49,2.35,2.35,0,0,1,1.73-.48l8,.24a.35.35,0,0,1,.37.41l-.06,1.84Z" transform="translate(-51 -25)"/><path class="cls-4" d="M182.57,205.72l.27-8.94,2.53.08-.27,8.94Z" transform="translate(-51 -25)"/><path class="cls-4" d="M194.49,202.25a2.94,2.94,0,0,0,0-.42c0-.14,0-.26,0-.37v-.11l2.5.07-.13,4.39c0,.23-.11.34-.32.34l-6.73-.21a5.16,5.16,0,0,1-1.69-.3,2.71,2.71,0,0,1-1.7-1.89,5.23,5.23,0,0,1-.15-1.47l.06-1.84a4.82,4.82,0,0,1,.24-1.47,2.62,2.62,0,0,1,.66-1.09,2.8,2.8,0,0,1,1.15-.68,4.87,4.87,0,0,1,1.7-.2l6.7.2c.24,0,.35.13.34.38l-.05,1.93-2.38.79h-.1l0-.86c0-.08,0-.12-.11-.12l-4.27-.13a2.28,2.28,0,0,0-.62,0,.85.85,0,0,0-.42.22,1,1,0,0,0-.25.43,2.61,2.61,0,0,0-.09.68l-.05,1.58a1.6,1.6,0,0,0,.27,1.14,1.41,1.41,0,0,0,1,.35l4.24.12c.09,0,.14,0,.14-.14Z" transform="translate(-51 -25)"/><path class="cls-4" d="M202.31,197.37a.58.58,0,0,1,.61.37l3.19,6.53a.29.29,0,0,0,.23.16h.14a.17.17,0,0,0,.2-.19l.2-6.73,2.3.07-.26,8.59c0,.23-.12.35-.35.34l-3.64-.11a.74.74,0,0,1-.38-.08.72.72,0,0,1-.24-.29L201,199.51a.26.26,0,0,0-.23-.16h-.13c-.13,0-.19.06-.2.19l-.2,6.72-2.3-.07.26-8.58c0-.24.13-.36.35-.35Z" transform="translate(-51 -25)"/><circle class="cls-5" cx="269.05" cy="195.53" r="155.02" transform="translate(-110.46 222.52) rotate(-45)"/><path class="cls-6" d="M155.1,185.61a23.82,23.82,0,0,0-10.56-9.26l-2.35,1.09,5.3,9.61a10.33,10.33,0,0,1-3.24,5.72v0a10.34,10.34,0,0,1-6.47-1.18l-4-10.23-2.36,1.1a23.8,23.8,0,0,0,.34,14s1,2.31,1.17,2.52c.94,1.08,3.36,2.34,8.06,2.05L157.22,232a8.48,8.48,0,1,0,8.76-4.09l-13.3-32.25c3.16-3.34,3.83-6,3.59-7.49A27.3,27.3,0,0,0,155.1,185.61Zm13.32,53.31-4.29,2-3.88-2.71.41-4.72,4.29-2,3.88,2.71Z" transform="translate(-51 -25)"/><path class="cls-7" d="M156.27,188.13a23.75,23.75,0,0,0-10.55-9.27l-2.35,1.1,5.29,9.6a10.22,10.22,0,0,1-3.24,5.72h0a10.3,10.3,0,0,1-6.47-1.19l-4-10.22-2.35,1.1a23.84,23.84,0,0,0,.33,14s3.67,4.91,9.23,4.56l16.21,30.92a8.47,8.47,0,1,0,8.76-4.1l-13.31-32.24C157.69,194.09,156.27,188.13,156.27,188.13Zm13.33,53.31-4.29,2-3.88-2.71.41-4.72,4.29-2,3.88,2.72Z" transform="translate(-51 -25)"/><rect class="cls-8" x="131.92" y="181.76" width="2.59" height="2.78" transform="translate(-116 48.61) rotate(-25.04)"/><rect class="cls-8" x="142.66" y="176.76" width="2.59" height="2.78" transform="translate(-112.88 52.69) rotate(-25.04)"/><rect class="cls-8" x="164.5" y="239.79" width="4.74" height="2.78" transform="translate(-137.4 68.31) rotate(-25.04)"/><path class="cls-9" d="M145.66,205.86,158.75,231a6.38,6.38,0,0,0,5.28-2.47l-10.65-26.29A10.09,10.09,0,0,0,145.66,205.86ZM163,228.75a7.7,7.7,0,0,1-1.69,1.11,6.5,6.5,0,0,1-1.81.54l-13.1-24.64a13.75,13.75,0,0,1,3.15-2.07,11,11,0,0,1,3.24-.95Z" transform="translate(-51 -25)"/><path class="cls-8" d="M163,228.75l1-.21a5.64,5.64,0,0,1-5.28,2.47l.77-.61A7.13,7.13,0,0,0,163,228.75Z" transform="translate(-51 -25)"/><path class="cls-10" d="M145.66,205.86l.76-.1a12.16,12.16,0,0,1,6.39-3l.57-.49a9.88,9.88,0,0,0-7.72,3.61Z" transform="translate(-51 -25)"/><path class="cls-11" d="M142.19,203.56a28.93,28.93,0,0,0,11.66-5.42l1.7,4.12s-1.93-1.91-6.16-.18c-4.95,2-4.68,6-4.68,6Z" transform="translate(-51 -25)"/><path class="cls-12" d="M155.55,202.26a5,5,0,0,0-2.58-.89L165.63,232l1.53-1.58Z" transform="translate(-51 -25)"/><path class="cls-13" d="M155.55,202.26s-1.32,4.09,2.49,6Z" transform="translate(-51 -25)"/><g id="layer2"><g id="g8624"><path id="path13136" class="cls-14" d="M244.07,89.56l6.54,2.09s-.93,5.34-1,5-8.53-4.18-8.53-4.18Z" transform="translate(-51 -25)"/><path id="path8468" class="cls-15" d="M130.32,399.27c5.83-52.41,10.91-104.92,17.2-157.26-.29-5.21,6.26-14.88-2.33-14.67-16.55-3.72-32.94-8-48.53-14.81-9-3.74-19-5.62-25.52-13.49L51,181.08c3.23-14.16,5.34-28.84,9.25-42.68l47.3-60.09C119.78,80,132,83.55,141.36,92.08l25.09,18.64c-5.91,6.82-11,14.78-17.41,20.9-5.15,2.61-13.87,2.39-12.38,10.28-3.66,4.37-8.5,8.15-12.62,12.3,9.39-.9,18.45,1.28,27.49,3.56,5.77-2.36,11.91-3,18.06-3.56,11-17.25,29.06-6.41,43.71-2.29,8.42.93,17,4.31,25.33,3.7,6.23-2.18,13.85-2.32,16.84-9.25,2.94-6.17,10.86-1.89,16.21-3,17.55.59,35.35.09,52.74,1.36,6.64,1.42,9.37,6.55,11.06,12.68,3.61,3.94,11.4,2.7,16.32,5.8l40.25,14.3c9.33,8.2,9.31,22,11.59,33.6,5.08,6.51-.78,14.87,1.42,22.31,1.55,11.19,8.34,20.85,13,30.93,1.71,5.14,2,11,5.61,15.93-.33,9.69-3.84,18.6-6.16,27.83C416.4,318.33,408.36,326,404,335c-4.55,2.8-8,12-13.9,6.88-2.54,1.58.9,11.41.64,16.13l4.62,41.42-265.07-.19Z" transform="translate(-51 -25)"/><path id="path8470" class="cls-16" d="M263,145.11l-.78,6.91,4.12,11.47-8.25,17.39-26.7,71L211.77,309l-7.06,13.83-.2,30-1.37,46.64,114.27.2,16.1-2.37,12.57-.59L363,391.56,375.53,385l-4.32-21.74L370,341l-1-13.24L373,315.47l3.53-18.58L374,280.69l1.57-39.53-13.35-38.94-18.85-28.65L338.42,167l-5.11-18-10-5.34Z" transform="translate(-51 -25)"/><path id="path13173" class="cls-17" d="M347.3,180.88s3.5,18.81,5.25,21.44,17.17,59.08,17.17,59.08l-4.56,35.45-6.65,21.88s-.35,16.19,1.75,17.94,4.6,12.84,5.6,16.19l9.57,31.95s-1.86-12.25-1.86-15.32,4.9-113.78,5.25-117.72-8.05-59.51-10.16-63-21.36-7.87-21.36-7.87Z" transform="translate(-51 -25)"/><path id="path8429" class="cls-18" d="M283.22,40.68,255.6,48.23C252.56,54,246,58.52,246,65.4c-.34,7.24-1.15,14.59,1,21.64,2,8,2,16.32,2.16,24.54.85,10.73,3.89,21.85,11,30.14,4.35,3.32,9,7.5,8.78,13.54.83,9.16,11.29,5.21,12.85,14.29,11.24,4.94-2.44-1.31,1.82.61,12.66,4,24.86,28.3,37.64,31.93,5.88-1,15.28-.46,18.57-4.63-3.62-11.37-7.3-22.75-10.8-34.14a31.33,31.33,0,0,1-5.71-18.38c-.71-7.48-1-15-1.09-22.51,8.47-.3,9.26-10.85,9.66-17.37,1.23-6.32,0-14.7-6.72-16.32-1-6.67,1.41-13.6-1.37-20.17-.13-7.64-4.66-12.73-10.39-17.18-3.69-5-9.74-5.64-15.32-7Z" transform="translate(-51 -25)"/><path id="path8436" class="cls-19" d="M327.38,90c-1.89,1.92-4.41,3.35-5.43,6l-2.49,4.52c-2.41-2.68-2.69-6.23-3.27-9.62-.9-3.3-.93-7-2.76-10-1.23-2.13-4.13-3.44-4-6.14L307.66,60.1l-11.38-7.68c-11,1.8-21.95,4-33,5.46-3.24.76-7.38-.92-9.87,1.68C250,62.05,246.86,65.32,248,69.9c.07,5.08.5,10.23,0,15.27-.62,1.48-1.22,2.72-1.37.38l-3.95-18.46c2.44-10.09,7.19-20.47,16.13-26.27,7.69-4.62,17.07-4,25.62-3.07A109.5,109.5,0,0,1,307,42.92c8.75,5.8,17.36,13.68,19.6,24.43.8,6.74.38,13.58.73,20.36,0,.77,0,1.53.08,2.3Z" transform="translate(-51 -25)"/><path id="path8439" class="cls-14" d="M292.87,84.73c-6.44,1-12.66,3.13-19.07,4.22-5.9.38-11.65-1.74-17.57-1.27-5.89-.05-11.87.34-17.45,2.31-2.13,1.64,3,3.09,2.05,5.61.44,2.84.71,5.81,2.78,8a10.58,10.58,0,0,0,9.92,5.55,18.12,18.12,0,0,0,14-3.21c2.77-2.09,3.31-5.71,3.18-9-1.18-4.12,4.83-7.65,6.78-3.3a17.61,17.61,0,0,0,3.76,8.68c2.88,4,8,5.61,12.72,5.15a52.25,52.25,0,0,0,9.25-1.45c3.7-2,3.36-6.85,4.11-10.45.3-3-.2-9,4.35-6a12.56,12.56,0,0,0,9.81,3c2.11.17,5.86-2.55,1.74-2.86-6.28-2.12-12.72-4-19.38-4.22-3.66-.3-7.32-.56-11-.75Zm4.9,1.74c4-.51,8.58,2.3,7.77,6.82-.38,3.67.87,8.82-2.73,11.11-3.82,2.41-8.6,2.4-12.95,2.18-4.78-.83-8-5.08-9.87-9.25-2.6-3.63.46-9.34,4.83-9.37a44,44,0,0,1,10.52-1.39C296.15,86.52,297,86.48,297.77,86.47ZM257.85,89c3.92,0,9.43-.28,10.8,4.45.94,3.71.34,8.22-2.34,11.09-4.66,4.3-11.86,3.78-17.36,1.53a9.48,9.48,0,0,1-5.7-6.53c-1.12-2.76-2.58-8.11,1.71-8.59a33.87,33.87,0,0,1,12.89-2Z" transform="translate(-51 -25)"/><path id="path8452" class="cls-20" d="M299.54,95s-4,.77-4.38.77-5.48.28-5.48.28l-4.44-1s-.07-1.33.48-1.53,2.29-1.33,3.06-1.33a36.5,36.5,0,0,1,5.48.14c1,.28,3.89.91,3.89.91Z" transform="translate(-51 -25)"/><path id="path8454" d="M289.89,96a8,8,0,0,0,1.73-.84V92.81l-1-.56-2.77.21-2.16,1.18-.2,1.4a8.19,8.19,0,0,0,1.52.7c.28,0,2.85.28,2.85.28Z" transform="translate(-51 -25)"/><path id="path8456" class="cls-21" d="M294.75,95.6l1.18-1.12-.42-1.32L292,93l-1.39-.63h4.1l4.09,1.39,1.25,1.61-7,1.19-2.84-.28,4.09-.49Z" transform="translate(-51 -25)"/><path id="path8430" class="cls-22" d="M294,104l-8.44-3.56-4.42-5.73.49-2.67,4.62-2.27,9.62-.3,5.1,3.07.59,3.95-12.27,1.09,1.47,3.06Z" transform="translate(-51 -25)"/><path id="path8432" class="cls-22" d="M300.62,92.83l-5.59-2-4.23-.2-3.63,1.68-1.86,1.78-.49-1.39,2.94-2.37,5.79-.79,5,1.38Z" transform="translate(-51 -25)"/><path id="path8434" class="cls-23" d="M304.55,89.18,294,87l-7.56.79-4.62,1.48L280,87.5,282.36,84l10.21.29,10.9,2.18Z" transform="translate(-51 -25)"/><path id="path8437" class="cls-24" d="M330,107.65s-2.07,4-2.16,3.46-1.77-1.28-1.77-1.28l-.69.3V112l-2,.4,1-3.07v-3l-1-1.48-.3-2.67,2.56-.3.78,3.26,2.26-.89,1.08,2Z" transform="translate(-51 -25)"/><path id="path8440" class="cls-24" d="M327.91,105.09s.1,4-.29,4-3.14.89-3.14.89l-1.08,1.18,1.27.89,1.77-2.17,1.28.89,2.16-2.57Z" transform="translate(-51 -25)"/><path id="path8442" class="cls-25" d="M331.06,104.89l.58-3.66-1.17-6.82-1.67-2-.1,3.06,1.77,3.06v4.15l.78,2.77Z" transform="translate(-51 -25)"/><path id="path8444" class="cls-26" d="M327.42,94.91l-2.26,2.17.5,2.18-.1.59s-2.26-1.09-2.16-1.48,2.45-4.94,2.45-4.94l2.16-.89Z" transform="translate(-51 -25)"/><path id="path8446" class="cls-27" d="M269,113l.29-4.35,2.75-4-.19-9.29.29-2.77,4.62.6,1.57,6.62s4.9,5.93,5.59,6.42a18.48,18.48,0,0,0,2.75,1.29l2.95-1s-8.45-6.13-8.45-6.62-1.76-6.62-1.76-6.62l.59-3.76s-10.8-.39-11.29-.49-6.78-3.17-7.47-3.17-8.83.3-8.83.3l-3.24.5-2.46-1.88.3,1.68,1.37,7.41.89,14.43,1.86,1.28,4.62.4-.49,1.58,2.84-2,6.78-1.78,1.47,2-3.44,2.27-.59,3.26,4.91,3.07,5.21-.7.78-2.66-2.85-2.28Z" transform="translate(-51 -25)"/><path id="path8448" class="cls-27" d="M268,101.73l-1.18-2-3.73,4.54-2-.19,2.74-3.76-2.45-1.78-7.95.2-.79,4.94L251,107l-1.77.69-.2-8.3-.29-5.53L247.31,88l-.19-1.38,13.35.39,3.73,1.09-1.67,1.58-3.73,1.09-5.2-.69-3.24,2.37.29,2.47L254,92.83l7.36-.2,4.32,1,2-.29,1-1.68a17.1,17.1,0,0,1,1.47,3.45c0,.7-.69,6.92-.69,6.92Z" transform="translate(-51 -25)"/><path id="path8450" class="cls-28" d="M265.94,97.56l-7.29.56-4.86.21-1.8-1.4,1.18-1.75,1.66-.84,5.63.28,3.81,1.19,1.39.91Z" transform="translate(-51 -25)"/><path id="path8453" class="cls-29" d="M256.91,98.05l1-.91-.14-2.1-1.18-.56H254l-1.74,1.89-.07.91a9.49,9.49,0,0,0,1.67,1.19c.35.07,3.05.07,3.05.07Z" transform="translate(-51 -25)"/><path id="path8455" class="cls-30" d="M260.87,98l2.57-1.12-1.25-1.26-3.05-.28-1.95-.7,5.42.21,2.84,1.82.35,1Z" transform="translate(-51 -25)"/><path id="path8447" class="cls-31" d="M293.22,52.84l-8.05-2.52L288,47.25l6.38.28,4.72-.28,4.17-1.12h3.33L294.89,39.7l-11.15-2L272.84,37s-6,.79-7.66,1.19a66,66,0,0,0-7.36,3.26l-4.91,4.44S247.8,52.22,247,54.1s-4.34,13-4.34,13l4.38,20.13,1-2.24s-1.47-18.73-.2-20.31,7-6.38,7-6.38,28.25-2.81,33.25-4.19,5.07-1.26,5.07-1.26Z" transform="translate(-51 -25)"/><path id="path8449" class="cls-31" d="M323.07,93.92l-3.4-5.44-2.75-10.37-2.55-13.54,1.47-10.18,2.85-1.18,4.12,5.13,3.24,6.72,1.33,25Z" transform="translate(-51 -25)"/><path id="path8451" class="cls-31" d="M298.76,54.1s3.63.39,4.32.39,8.14-3.16,8.14-3.16l3.83-2.18.69.5-8.54,4.64.46,5.82Z" transform="translate(-51 -25)"/><path id="path8457" class="cls-23" d="M300.86,125.65l-9.17-12.3-7.22-6.29L281,106.5l-3.19,2.1s-.28,2,.28,2,6.52.42,6.52.42l1.25,1.26-1.39,2.24-2.63-1.12H276.7s-1.25,2.65-.56,2.65,8.06.28,8.06.28l2.36-1.11.83-2.1Z" transform="translate(-51 -25)"/><path id="path8459" class="cls-32" d="M283.1,115.46l-.2-1.28-3.39-.1s-.09,1.63.5,1.68A29.8,29.8,0,0,0,283.1,115.46Z" transform="translate(-51 -25)"/><path id="path8461" class="cls-32" d="M284.28,115.36l1.76-.69.89-3.06-2.61-3.26,3.34,3.16-.64,1.73-2.45,2.12Z" transform="translate(-51 -25)"/><path id="path8463" class="cls-33" d="M272.25,116.45,270,114.08s-1.86-.59-1.77-.1.5,1.68.5,1.68l-3.24.2s2.16.69,2.55.79a11.65,11.65,0,0,0,2.55-.69Z" transform="translate(-51 -25)"/><path id="path8465" class="cls-34" d="M302.66,87.36l-11.24-.28-11.11,2.23L281,86.1l8.06-1.54,11.66.42Z" transform="translate(-51 -25)"/><path id="path8467" class="cls-34" d="M264.76,89.73,257,90l-6.24,1.12s-2.64-1.12-2.22-1.68,9.3-3.07,9.3-3.07l6.94,1.12Z" transform="translate(-51 -25)"/><path id="path8469" class="cls-35" d="M288.89,93a1.85,1.85,0,0,1,.66.91,1.65,1.65,0,0,1,.05.79l.86-.67L290,92.76Z" transform="translate(-51 -25)"/><path id="path8471" class="cls-36" d="M255.51,95.2s.74-.64.93-.39.69,1.09.69,1.09l-1,.54-.79-1Z" transform="translate(-51 -25)"/><path id="path8485" class="cls-37" d="M294.34,126.73c-.49,0-9.23-4.25-16.3-3S268.13,126,267,126.92s-3.54,2.28-3.54,2.28l1.08,2.27a72.94,72.94,0,0,0,15.71-.2,78.33,78.33,0,0,0,11-2.47,21.91,21.91,0,0,0,3.14-2.07Z" transform="translate(-51 -25)"/><path id="path8487" class="cls-38" d="M291.59,128.21l-1.18-.89s-9.72.1-10.21.2-11.68,1.87-11.68,1.87l.29,1.39-3.14.79-1.86-1.09s.19-1.48.59-1.58,3.82-2.27,3.82-2.27l-1.08,2.27s7.86-2.17,8.94-2.17,7.85-.4,8.74-.3,6.67-.4,6.67-.4l2.26.89-.69,1.39Z" transform="translate(-51 -25)"/><path id="path8489" class="cls-39" d="M252.22,87.4,264,77.12l6.29-4.74s3.53-4.75,2-7.71a30.09,30.09,0,0,1-2.36-6.52l.4-1.19s-8.25,1.19-10,1.19-6.67.39-6.67.39l-5.89,6.92s-.59,3.56,0,5.14S248.1,84,248.1,84l-1.18,3.36,4.32,1.78Z" transform="translate(-51 -25)"/><path id="path8458" class="cls-40" d="M279.06,148.15l-2.5,1.95s-3.05-1.95-3.05-3.63a13.89,13.89,0,0,1,.83-3.91l3.89-2-4.72.28-.28-4.75,8.61-1.4-11.94.56-6.11-3.35-3.06-3.36,3.61-4.19,6.94-1.4s2-6.71.84-5.87-9.17,5.31-9.17,5.31l-.83-2.23s-3.61,2.79-3.61,4.19.56,7,.56,7l-3.61-7.55L253.79,118l1.39-7-6.11-1.11s1,10.25,1.29,11,3,8.89,3,8.89l2.16,5,4.52,6.82,5.3,4.54,3.14,4.35,7.75,6,28,12.45s.4-1.09-.29-1.48-26.8-12.75-26.8-12.75l19,7.71L279,153.7h-3.63l1-3Z" transform="translate(-51 -25)"/><path id="path8460" class="cls-40" d="M280.31,146.75l-1.81,2.93-5.13-2,.41-4.19-.41-.7s-1.81,4.75-1.53,5.31,5,2.79,5,2.79l3.89-.42.13-1.67,1-.84Z" transform="translate(-51 -25)"/><path id="path8462" class="cls-41" d="M295,127.32l-4.45-4.19L279.75,122l-3.05-.55-.69-3.78,8.19-1.4,10.55,5.59,2.08,4.62Z" transform="translate(-51 -25)"/><path id="path8464" class="cls-40" d="M319.88,123.83l-13.61,18-18.6,8.8,7.91,3.5,15.69-1.82s2.78-12.72,3.05-13.28l5.14-10.34Z" transform="translate(-51 -25)"/><path id="path8466" class="cls-41" d="M277.53,121.59s-1.94-1.25-1.94-1.81,1.39-2.24,1.39-2.24,1.52,1.54,1.52,1.82a16.71,16.71,0,0,0,.7,2Z" transform="translate(-51 -25)"/><path id="path8472" class="cls-16" d="M258.7,179.69l8.05-.39,8.05-3.56,6.09-7.11,5.3,4.15,7.85.39,4.52-2.17-28.47-18.19-6.09-7.7-2.16,6.72,4.52,12Z" transform="translate(-51 -25)"/><path id="path8475" class="cls-42" d="M281.48,168.82,285.4,172l8.25,1.77,3.93-2,7.66,21-17.68-3.36s-8.83-4.75-9.62-5.54-6.87-1.58-6.87-1.58l-12.17-.79s-.59-1.58.39-1.58,8.64.59,8.64.59l6.09-4.15Z" transform="translate(-51 -25)"/><path id="path8488" class="cls-16" d="M328.21,163.24l-3.06,13.42-3.33,5,1.39,6.15,8.89,7,5.83,5.59,10.27-11.74-13.33-31Z" transform="translate(-51 -25)"/><path id="path8494" class="cls-43" d="M330.43,193.57s-5.83-2.38-6.25-3.5-5.27-10.9-4.86-12.58,3.75-13.83,3.89-14.39,1.25-8.8,1.25-8.8l3.19,3.91,1.25-7.55-1.25-2.23,4,1s-2.92,11-2.92,12.16-4.3,16.35-4.3,16.35l-1.67,2.94s0,6.43.56,6.85,7.08,5.87,7.08,5.87Z" transform="translate(-51 -25)"/><path id="path13183" class="cls-44" d="M278.17,396.19s-17.39-33.7-17.83-35.89-27.77-79.84-27.77-79.84l-4.29-20.86S216.2,293,217.5,294.79s34.58,67.26,36.32,69.89,15.65,26.69,15.65,26.69Z" transform="translate(-51 -25)"/><path id="path13181" class="cls-45" d="M310.34,397.5l.87-7.88-20.43-20.56L232.52,282l-4.78-25s19.56,23.2,20.87,25.39,55.65,79.21,55.65,79.21,9.13,4.37,10.87,5.25S319,380,319,380l-4.35,6.56Z" transform="translate(-51 -25)"/><path id="path8477" class="cls-46" d="M279.91,170.4c3.36,1.78,7.19,3,10.25,5.14,1.9,3.05,3.73,6.14,5.45,9.29-4.19,6.74-14.12,8.25-16.62,16.47-6.19,15.6-11.2,31.69-16,47.76-5.25,36.11-11.86,72-17.8,108-1.39,8.26,8.17,13.43,12,19.93,3.88,5.83,9.24,10.74,14.82,3.84,6.58-5,14-9.58,19.84-15,2.37-37,4.48-74.06,8-111,1.26-14.16,3.6-28.27,4-42.47.67-2.88-2.18-7.4-.21-9.25,3.33-.3,1.44-4.44,1.8-6.75s-2.17-6.8,1.69-6.93c7.52-2.55,15-5.26,22.74-7.16,3.5-3.19-2.65-1.92-4.63-2.58a20.49,20.49,0,0,1-10.8-3,33.32,33.32,0,0,0-18.09-4.1,16.79,16.79,0,0,1-14.53-3.71,17.91,17.91,0,0,0-2,1.53Z" transform="translate(-51 -25)"/><path id="path8479" class="cls-47" d="M305.24,190.76a56.53,56.53,0,0,0,15.42,4.49c3.55,1,7.13-.63,10.69-.93,5.94,6.09,11.43,12.69,17.66,18.46a153.63,153.63,0,0,1,20.87,19c4.11,5.4,7.44,11,5.27,18-1,12.79-1.35,25.72-2.83,38.43-2.24,4.76-5.08,9.28-5.58,14.63-.29,5-4,8.56-6.23,12.72-3.05,3.38-2.65,8-3.17,12.23-.25,7.48-1.78,14.65-6.56,20.62q-9.13,15.42-18.25,30.86c-4.55-15.6-8.27-31.46-14-46.69-2.75-8.16-5.56-16.29-9.42-24-3.43-7.26-6.28-14.81-10.57-21.61,2.73-10.47,5.32-21,6.06-31.82,1.85-13.36,3.26-26.81,2.78-40.32-.62-5-4.17-10.24-2.34-15.15.8-2.82,0-6,.18-9Z" transform="translate(-51 -25)"/><path id="path8481" class="cls-48" d="M203.81,323.67,178,358.05l-6.67,11.74-10.27,29.63s41.93.84,41.93-.56.83-75.19.83-75.19Z" transform="translate(-51 -25)"/><path id="path8490" class="cls-43" d="M344.7,189.38c-.39-.79-10.6-7.12-11.39-7.51s-7.46-.6-7.46-.6l-2.94,4,4.12,5.53L337,188l5.89,3.36,3.54,2.77Z" transform="translate(-51 -25)"/><path id="path8492" class="cls-43" d="M359.62,208.35l-16.69-26.68,13.95,20Z" transform="translate(-51 -25)"/><path id="path8496" class="cls-25" d="M211,308l1.66-20.4.84-35.5S218,216.07,218,215s6.94-34.38,6.94-34.38l4.17-18.45.55-5-10-.28s7.49,7,6.66,9.23-13.88,44.44-13.88,47.79-4.17,86.09-4.17,86.09l.84,7.82Z" transform="translate(-51 -25)"/><path id="path8498" class="cls-25" d="M182.15,151.22,171.6,161.56l-15.55,52.55-7.5,40-7.5,46.67s6.67-59.25,6.95-60.93,1.38-9.5,1.38-9.5L146.05,227l-12.49-2.24-11.39-4.47,25.27-11.74L162.71,170l-9.72-12,3.34-2.8,15-.27,7.22-6.71Z" transform="translate(-51 -25)"/><path id="path8500" class="cls-49" d="M152,231.86s5.56-26.28,5.83-27.11,7.36-27.67,7.36-27.67,4.31-11.46,4.58-12,4.86-7.55,4.86-7.55l7.92-7.13-10.42,8.39-5.55,10.9s-3.75-6.43-4.3-7.27-8.47-4.89-8.47-4.89l-.14,2.24,6.66,4.05s4.58,6.29,4.72,7.55-6,21.94-6,21.94l-10,36.05-1.67,15.93L145.64,266Z" transform="translate(-51 -25)"/><path id="path8502" class="cls-49" d="M114.4,209.5c1.11,0,4.58-3.22,5.69-4.33s6.11-8.39,6.8-9.23,4.45-13.69,4.45-13.69,1.11-9.51,1.11-10.21-1.67-11.73-1.67-11.73l-4.3-4.9-2.92-.69,4.17,4.61s2.63,9.36,2.63,10.9-3.47,18.86-3.61,20.82-4.58,9.08-5.13,9.64-7.22,8.81-7.22,8.81Z" transform="translate(-51 -25)"/><path id="path13103" class="cls-18" d="M199.88,56.7c-6.23.22-12.34,2.64-18.19,4.56C175,66,168.14,70.51,160.62,73.65c-7.09,4.83-13.45,10.66-20.94,14.89-5.88,2,.19,4.07,3.17,6.14,6.92,4.34,13.27,9.52,20.22,13.84,5.91-3.83,10.86-9.85,18.18-10.85,6.38.83,12.53,4.61,19.36,4.84,6,2.53,12.15,2.38,18.34.81,5.06-1.17,10.69-.79,15-4.07,1.93-1.44,4.5-.82,6.74-1.26,0-1.94.12-4.61-2.13-5.35-4.88-3.71-11.51-.33-16-.49-3.67.5-8.86.45-10.95-2.13,6.38,2,13.77-.14,16.17-6.93.9-3.68,2.87,2.46,5.21,3.25,1.44,1.81,3,3.49,5.47,3.09,1.5.44,6.73-1,4.17-2.36-2.77-1.19-2.86-4.45-4.37-6.63-2.76-2-5.14-4.81-8.16-6.29-5.64-.69-9.75-5-14-8.37-3.43-3-7-6-10.44-8.94-1.93-.07-3.85-.12-5.77-.14Z" transform="translate(-51 -25)"/><path id="path13107" class="cls-50" d="M223.32,80c-1.64,1.12-3.44,2.1-5,3.3-.16.78-1.33,1.68-.74,2.38a43.59,43.59,0,0,1,3.56,4.61c-2.42.33-5,.25-7.44.39-1.29-2-2.62-4.23-5.1-4.85a51.3,51.3,0,0,1-8-4.59c2.57-1.27,4.77.59,7,1.67a8.53,8.53,0,0,0,7.26.81c2.58-1.34,4.76-3.46,7.36-4.65,1.28.23,2.82-.56,1.07.93Z" transform="translate(-51 -25)"/><path id="path13109" class="cls-50" d="M216,84.53l7.23-3.94c-.5-.76-.91-1.91-1.78-.83-2.33,1.51-4.63,3.07-7,4.54Z" transform="translate(-51 -25)"/><path id="path13111" class="cls-51" d="M216.79,75c-1.57,1.18-3.07,2.49-4.67,3.6a18.35,18.35,0,0,0-2.93,1c-.44.78-1.15,1.57-.17,2.25a8.8,8.8,0,0,0,2.39,2.65L210,86.85c-2.87-1.41-5.68-3-8.59-4.31a32.79,32.79,0,0,0-3.62-.66c-1,.29-2.16,1.26-3,.08,1.19-1.41,3.71-2.43,3.85-4.35.09-1.49-.55-2.87-.89-4.29a49.33,49.33,0,0,0,4.07-3.19c.4-.78,1.21-1.47.79-2.4-.42-2.73-.83-5.46-1.25-8.18,1.86,2,2.66,5.1,4.74,6.75.76-1.24,1-3.62,2.18-4.2.49,2.23,1.78,4.72-.22,6.6A13.14,13.14,0,0,1,204.73,73c-1.09.52.12,1.45.32,2.21l1.52,2.94a36.39,36.39,0,0,0,4.7-.86l4.37-3,1.15.78Z" transform="translate(-51 -25)"/><path id="path13113" class="cls-51" d="M215.18,75.25l-6.61,3.48a45.57,45.57,0,0,1-4.7-1.41l-2.68-1.92c-.47,2.75,3.72,2.82,5.64,3.23A7.12,7.12,0,0,0,214,77c.55-.43,1.71-.81,1.15-1.73Z" transform="translate(-51 -25)"/><path id="path13115" class="cls-51" d="M206,82.75l-5.68-2.24c1.34,1,2.36,2.59,4.06,3,.75.06,1.84,1.29,2.26.28.54-.42-.45-.72-.64-1.07Z" transform="translate(-51 -25)"/><path id="path13117" class="cls-51" d="M203.57,77.34c-2.38-.6-3.85-.06-4.24,2.33a16,16,0,0,0-4,3.16c-2.42-.55,2-2.2,2.36-3.29a4,4,0,0,0,1.86-3.27c-.67-.79-1.38-1.56-2.07-2.34,1.41-2,3.71-3,5.1-5,.46-1.18,1.4-.25,2.19,0,1.05.91,1.29-.12,1.58-1.06l1-2.59V68.6c.91.54,1.74,1.08.27,1.46a5.38,5.38,0,0,0-2.27,1.79c-.69-.63-1.27-1.5-2.32-1.39a22,22,0,0,0-2.73,2.37c0,.74-1.24,2-.38,2.34A25.51,25.51,0,0,1,203,76.46l.54.88Z" transform="translate(-51 -25)"/><path id="path13119" class="cls-51" d="M219.91,89.19l-2.61-3L211,87l3.37,1.64c-.51.75-1.53,1.79,0,1.34l5.61-.47-.11-.33Z" transform="translate(-51 -25)"/><path id="path13122" class="cls-52" d="M238.93,93.13c-.38,0-5.6-.22-5.6-.22l-6,.28-1.57,2.08-1,.32-1.14-2.73s-5.54.16-6,.16-4.67-.87-5-.93a10.86,10.86,0,0,1-1.79-1.58s1.9-.06,1.9.16a11.71,11.71,0,0,0,2.77,1.64h6.85l3-.38,3.64-.71s5.93-.17,6.36-.11a15.35,15.35,0,0,1,1.85.66,18,18,0,0,1,1.79,1.36Z" transform="translate(-51 -25)"/><path id="path13124" class="cls-52" d="M237.25,88.43a20.23,20.23,0,0,1-3.43-2.68,32.63,32.63,0,0,0-3.37-3.39c-.38-.22-2.17-2.57-2.17-2.36s-3.1,6.3-3.26,6.51-4.35,2.57-4.35,2.57-.65,1.37-.43,1.37a32.39,32.39,0,0,0,3.15-1.75A28.44,28.44,0,0,0,226.76,85c.32-.6,1.74-3,1.74-3A9,9,0,0,0,230,83.78c.44.22,4.68,4.16,4.68,4.16s.7,1.14,1,1.09a15.14,15.14,0,0,1,1.52,0Z" transform="translate(-51 -25)"/><path id="path13126" class="cls-52" d="M229.37,81.54a30.46,30.46,0,0,0,.33-4.44l-1-2.78c1.93,1.45,4.07,2.69,5.45,4.75,2.22,1.63-2,3.78-3.18,3.73l-1.61-1.26Z" transform="translate(-51 -25)"/><path id="path13128" class="cls-52" d="M193.35,98.15l-4.61-6-.31-5.57s3.07-3.4,2.15-3.09-8.45,1.39-9.07.46-2.46-7-1.84-7,9.22-4.64,9.22-4.64,4.61-4.8,3.23-4.8-12.61,2.17-13.53,2.17-2.3-2.63-2.3-2.63l2-2.79s-17.37,9.29-18,9.91-11.38,8.51-11.38,8.51l-12,7.89,5.23,3.56s8.46-4.8,10.15-5.73,10.76-4.49,11.83-5,2.92,1.86,3.84,1.86,2.93-4.64,4.31-4.49,7.53,4.49,7.53,4.49l4.92,7.58-.61,1.7s-1.85,2.17-1.23,2.48,7.68,3.09,7.68,3.09l3.38.46Z" transform="translate(-51 -25)"/><path id="path13130" class="cls-52" d="M183.82,96.14c-1-3.08-1.83-6.2-2.85-9.25-1.71-2.67-3.34-5.41-5.1-8l-4-3.47c1.57,2.23,3.28,4.38,4.76,6.66,1.73,3.38,3.13,6.92,4.83,10.3.76,1.28,1.57,2.54,2.4,3.78Z" transform="translate(-51 -25)"/><path id="path13132" class="cls-52" d="M204.42,68.29c-.07-1.58.12-3.24-.09-4.76l-2.07-2.67a60,60,0,0,1,.62,8.36c.25,1.75,4.3,1.66,1.83.5C203.77,69.28,204,69.11,204.42,68.29Z" transform="translate(-51 -25)"/><path id="path13134" class="cls-53" d="M136.17,90.65c-.39-.31-15.61-7.74-15.61-7.74s-7.91-3.71-7.61-3.64l9.69,2.48,9.76,3.87s6.38,3.63,5.84,3.86-2.07,1.17-2.07,1.17Z" transform="translate(-51 -25)"/><path id="path13149" class="cls-54" d="M266.87,150.46l-3.48-2L266,163.15l-2,8.1-18.7-2.85L230.78,168s-3.26-1.75-2-2.41,2.61-2.19,1.31-2.84-8.48-5-9.35-4.38-11.09,2-14.13,1.09S189,157.9,189,157s-3-7-3-7l-4.57-2.18,3.48-2.41s7.17,0,8.26.44,15,3.94,15,3.94l15,4.15,14.35,2.19,11.95-3.28,5.44-5s.43-3.07,1.3-3.5,5.22-2.41,5.22-1.54,5.44,7.66,5.44,7.66Z" transform="translate(-51 -25)"/><path id="path13151" class="cls-54" d="M391.18,248.54c.77,0,6.76-1.24,8.45-1.7a11.8,11.8,0,0,0,3.54-2l-.46-3.25s-1.54.93-1.39,1.55-1.53,2-2.15,2.16-7.53.47-7.53.47Z" transform="translate(-51 -25)"/><path id="path13153" class="cls-55" d="M397.79,273.76l-3.69,13-1.54,14.7,11.22-.16,4.62,2.63s1.38,7,1.38,7.74-5.23,10.83-5.23,11.45-9.07,5.1-9.07,5.1l-6.91,4.49,1.53,8.2s3.08,2.32,3.85,2.32,6.76-3.56,7.22-4.18,6.3-9.59,6.76-10.52,5.54-8.2,5.54-8.2,2.61-7,1.23-5.26-8,10.52-8.3,9.75-.31-3.09.61-3.87,4.46-7.89,4.46-7.89l-1.38-7.89-3.54-3.25-4.15-1.7L400.56,296s5.53-1.55,4.91-1.86-6.3-3.71-6.3-3.71l4-.62-4.3-4.79,1.53-1.4s5.23-1.85,5.84-1.85,4.46-2.48,4.46-2.48l5.53-2-10.45,2-7.38,1.39.47-4.79Z" transform="translate(-51 -25)"/><path id="path13155" class="cls-55" d="M397.41,280.44s5.87-3.29,7.28-3.83a44.26,44.26,0,0,0,6.85-4.05l6.08-6.24-7.82,8.21s-4.13,3.28-5.33,3.72-7.28,3.5-7.39,4.05-2,6-2,6-1.19-1.53-.87-2,3.26-12.14,3.48-11.26a35,35,0,0,1-.32,5.36Z" transform="translate(-51 -25)"/><path id="path13175" class="cls-17" d="M371.89,341.7c0-1.13-7.93-12.75-7.93-12.75s-.79-11.61-.79-13.43,6.6-18.67,6.6-18.67l6.08-5.69.8,8.42s-2.91,22.09-2.12,25.05-2.64,17.07-2.64,17.07Z" transform="translate(-51 -25)"/><path id="path13157" class="cls-56" d="M385.12,333.94l5.44-2.52,5.43-4.05,8.7-4.59s4.56-6.68,4.67-7.44.22-10.07.22-10.07L405.67,302l-3.81-1-8.58-14.88-5.55-1.32-7.71-2.4s-4.46-3.4-4.9-3.83-3-2.41-3-2.41-2.17,1.75-2.28,2.41-.76,3.61,0,4.7a15,15,0,0,0,3.26,3.06c1.74,1.43,5.87,4.93,6.41,5.26s3.7,2.62,3.7,2.62l.43,3.72-4.13.22s-1.3-2.52-1.74-2.52-2.71.22-2.71.66,0,4.16-.44,4.6-4.46,1.64-4.67,2.51-1.09,5.58-1.09,5.58-2.83,2-2.94,3-.76,3.06-.21,4.15a5.12,5.12,0,0,1,0,3.61c-.33.44-2,1.1-1.42,1.54s9.24,10.06,9.24,10.06,1,2.08,2.18,2.08,10.11.66,10.11.66Z" transform="translate(-51 -25)"/><path id="path13159" class="cls-57" d="M392.41,314.24s0-3.28-.66-3.61-8.58-2.51-9.45-2.95-6.31-3-6.31-3l-.32-3.06,2.17-3.39.11-2.19s-2-.55-2.07,1.1a7.7,7.7,0,0,1-1.63,4c-.43.33-3,1.43-3.37,2s-1.63,4.05-1.63,4.05l-.65,2.85s-2.72,1.09-2.72,2-.21,4.59-.21,4.59V319l-1.31,2,3.37,4.15,4.46,5.47L372,327.7l-1.3-2.73s-5-4.71-2.83-4.16,6.41,5,7.5,5.36,2.07-.11.76-1-6.85-5-7.28-6a34.59,34.59,0,0,1-1.74-3.5c0-.44,1.2-4.27,1.2-4.27l5.87,3.06c.43.22,5.54,4.6,6.08,4.82s6.74,3.72,7.28,3.61,1.31-3.4.22-4.16-9.45-4.49-10.54-5.8-4.46-4.7-3.81-4.7,7.5,2.95,8.7,3.39S389.47,315,390,315a12.33,12.33,0,0,0,2.4-.77Z" transform="translate(-51 -25)"/><path id="path13161" class="cls-57" d="M388.06,313s1.19-.55.76-.77-5.22-2.4-5.65-2.73-5.87-3-5.87-3L375,303.63l.1-3.17-2.5,2s-1.95-.33-1,.22,2.06,3,2.6,3.28,4.57,3.06,5.22,3.28,9.46,3.72,8.59,3.83Z" transform="translate(-51 -25)"/><path id="path13163" class="cls-57" d="M383.28,319.71c-.44-.22-7.18-5.14-7.18-5.14L370,310.3l-.87-1.75s-2.18.77-1.42,1.32l5.33,3.72,7.5,5.36Z" transform="translate(-51 -25)"/><path id="path13165" class="cls-57" d="M377.52,326.72,371.86,322l-3.58-3.17-2.07-2.08s-.87,1.31-.43,1.75,5.1,3.72,5.54,4.16,5.11,4.05,5.11,4.05Z" transform="translate(-51 -25)"/><path id="path13167" class="cls-58" d="M376.86,316a22.37,22.37,0,0,0-2.82,2.85,35.06,35.06,0,0,1-2.29,3.17l-2.28-1.42v-1.42l3.26-4.16s1.42-1.53,2.18-1A15.7,15.7,0,0,1,376.86,316Z" transform="translate(-51 -25)"/><path id="path13169" class="cls-59" d="M375.45,316.1l-1.2-1.09-2.06,1.2-.65,1.75.11,1.75-1.42,1-1.41-.66,2.5-3.94,2.93-2.08,1.63,1.21Z" transform="translate(-51 -25)"/><path id="path13171" class="cls-57" d="M384.25,298.6c.44.11,3.48,1.75,4,1.75s8.69,1.53,8.69,1.53l-7.82-2.41-1.31-2.4s-1.19-2.19-.76-2.08a44.49,44.49,0,0,0,4.89-.88s-3.8-2.73-4.24-2.73-6.19-.55-6.19-.55L377,286.89l-3-3.61s-.87-4.59-1.31-4.16-3.8,2.63-3.26,3.5a36.17,36.17,0,0,0,6,5.48,58.69,58.69,0,0,1,7.07,5.36,26.69,26.69,0,0,1,.65,3Z" transform="translate(-51 -25)"/><path id="path13177" class="cls-60" d="M293.82,216.76,288.6,264l6.09,46.38-4.35,56L266,383.06s-6.09-21.88-6.09-25.38,10.43-76.15,11.3-79.65,12.18-53.39,12.18-53.39l1.74-26.26,10.43,5.25Z" transform="translate(-51 -25)"/><path id="path13179" class="cls-61" d="M304.91,197.94s-2.83-5-2.39-6.12,1.74-4.6,1.74-4.6l-5.66-3.28-3,.44L294,181.31l-3.48-5.47s-7-3.06-8-3.72-4.57-1.75-3.7-2.4a14.46,14.46,0,0,1,2.39-1.32s3.92,3.72,7.83,3.94,8.26-.65,9.56,0,12.4,2.85,12.4,2.85-6.09,2-7.18,3.06a40.94,40.94,0,0,0-3,3.94l4.35,5a9.15,9.15,0,0,1,.21,2.85c-.21.87-.43,7.87-.43,7.87Z" transform="translate(-51 -25)"/><path id="path13185" class="cls-44" d="M236.87,398.81S226,385.25,225.56,383.5,217.3,352,217.3,352l-2.17-28.88,1.3-24.95-11.74,24.51-2.17,76.14Z" transform="translate(-51 -25)"/><path id="path7706" class="cls-62" d="M300.78,283.28l25.65,32.17,3.26-7.44s17.17-18.82,17.39-19.7,8-11.37,8-11.37l15.22-17.07,5.22-7.44s-.65-6.35-.87-7.22-14.35-18.6-14.35-18.6L308,222.67s-2.61,32-3.26,35.23-3.48,16.63-3.48,16.63L300.13,282Z" transform="translate(-51 -25)"/><path id="path8513" class="cls-63" d="M336.21,292.25c-2.15,2.4-4.4,4.72-6.31,7.32a46.48,46.48,0,0,1-4.44,6.09,25.37,25.37,0,0,0-.77,3q-4.68-8.09-9.35-16.19l6.74,3.5,9.35-.44,4.78-3.28Z" transform="translate(-51 -25)"/><path id="path8515" class="cls-64" d="M305.13,279.12c2.94-1.4,6.35-2.33,9.56-1.28a28.88,28.88,0,0,1,5.64,2.22c1.35,1,1.82,3.19,3.59,3.59,2.82.72,5.68,1.74,8.62,1.57a100.72,100.72,0,0,0,11.5-3.47c.5-1.6,1-3.21,1.52-4.81l-5.65-4.16a100.61,100.61,0,0,0-13.72-2.63c-5.39,0-10.77-.56-16.14-.93-2.37-.19-4.73-.39-7.1-.6-.43,2-.87,4.09-1.3,6.13.93,1.26,1.75,2.64,2.76,3.83l.72.54Z" transform="translate(-51 -25)"/><path id="path8517" class="cls-65" d="M359.25,263.81c-1.63-2.46-2.55-6.12-5.51-7.19-4.23-1.24-8.18-3.56-12.65-3.81-7.1-1-14.36-.6-21.41-2.06-3.49-1.14-7.06-2-10.54-3.23-4.59-3.88-2.58-13.1,1.43-14.31a18.72,18.72,0,0,1,7.34-2.49,55.3,55.3,0,0,1,7.66-1,46.71,46.71,0,0,1,9.41,3.09,62.73,62.73,0,0,1,7.3,4.83c1.25,2.52,2.78,5,3.5,7.75-1.34,2.93,1.85,4.47,4.29,4,4.79.5,9.6.88,14.4,1.27V238.86l7,10.72-12.18,14.23Z" transform="translate(-51 -25)"/><path id="path8519" class="cls-63" d="M349.91,237.77l4.34-5.47H344Z" transform="translate(-51 -25)"/><path id="path8526" class="cls-66" d="M307.84,235.8s12.5-3.17,13.59-3,11.3,3.72,14.35,5.58,4.56,8.32,6.08,9.41,9.13,3.94,10.55,3.94,9.67.11,9.67.55-3,10.94-3,10.94l-9.57,22.32L369,261.4l6.08-8.42s-.54-8.32-.76-8.76-14.56-18.05-14.56-18.05H333.17c-1.52,0-21,3.72-21.63,4.16s-3.7,5.47-3.7,5.47Z" transform="translate(-51 -25)"/><path id="path8528" class="cls-66" d="M337.07,284.13c1.38,0,2.92-8.05,2.92-8.05l-19.83-6,23.52,2.63c1.38.15,11.07.46,11.07.46s-5.69,13.31-6.3,13.31S330,307.8,330,307.8l-4.15,6.5s-4.76-7-3.38-7.58,10.14-12.54,10.6-13.46,4-9.13,4-9.13Z" transform="translate(-51 -25)"/></g></g><path class="cls-67" d="M351.66,134.61l3.22,91.8a6.76,6.76,0,0,0,6.76,6.53H519.77a6.77,6.77,0,0,0,6.76-6.61l2.21-92.86a6.76,6.76,0,0,0-6.8-6.93l-163.57,1.07A6.76,6.76,0,0,0,351.66,134.61Z" transform="translate(-51 -25)"/><path class="cls-68" d="M519.77,233.19H361.64a7,7,0,0,1-7-6.77l-3.22-91.8a7,7,0,0,1,7-7.26l163.57-1.07a7.07,7.07,0,0,1,5,2.1,7,7,0,0,1,2,5.08l-2.22,92.87A7,7,0,0,1,519.77,233.19ZM522,126.79h0l-163.56,1.07a6.52,6.52,0,0,0-6.47,6.75l3.22,91.79a6.49,6.49,0,0,0,6.51,6.29H519.77a6.55,6.55,0,0,0,6.51-6.36l2.22-92.87a6.52,6.52,0,0,0-6.52-6.67Z" transform="translate(-51 -25)"/><path class="cls-69" d="M351.89,139.29H528.56l.28-4.84a7.42,7.42,0,0,0-7.46-7.85l-163.5,1.29a6.13,6.13,0,0,0-6.08,6.25Z" transform="translate(-51 -25)"/><polygon class="cls-70" points="309.78 121.7 309.78 174.82 363.85 174.82 363.85 121.42 309.78 121.7"/><rect class="cls-71" x="416.11" y="125.26" width="23.52" height="23.52"/><rect class="cls-72" x="443.86" y="125.26" width="23.52" height="23.52"/><rect class="cls-73" x="387.89" y="125.26" width="23.52" height="23.52"/><rect class="cls-74" x="407.23" y="162.5" width="60.15" height="5.63"/><rect class="cls-74" x="392.19" y="171.07" width="75.2" height="1.74"/><rect class="cls-74" x="392.9" y="151.78" width="14.39" height="1.74"/><rect class="cls-74" x="420.68" y="151.78" width="14.39" height="1.74"/><rect class="cls-74" x="448.43" y="151.78" width="14.39" height="1.74"/><rect class="cls-74" x="387.89" y="173.91" width="24.19" height="1.74"/><rect class="cls-74" x="392.19" y="176.71" width="75.2" height="1.74"/><rect class="cls-74" x="387.89" y="179.51" width="79.49" height="1.74"/><rect class="cls-74" x="387.89" y="182.31" width="79.49" height="1.74"/><rect class="cls-74" x="392.19" y="193.63" width="75.2" height="1.74"/><rect class="cls-74" x="387.89" y="196.43" width="79.49" height="1.74"/><rect class="cls-74" x="387.89" y="199.23" width="79.49" height="1.74"/><rect class="cls-74" x="387.89" y="185.11" width="76.3" height="1.74"/><rect class="cls-74" x="392.19" y="187.91" width="75.2" height="1.74"/><rect class="cls-74" x="387.89" y="190.71" width="64.41" height="1.74"/><g class="cls-75"><polygon class="cls-13" points="307.08 107.08 308.21 105.38 314.29 110.7 313.35 112 307.08 107.08"/><polygon class="cls-13" points="314.44 107.08 313.32 105.38 307.24 110.7 308.17 112 314.44 107.08"/></g><rect class="cls-13" x="418.84" y="106.53" width="54.44" height="2.73"/><path class="cls-76" d="M249.27,370.18H152.58a7.93,7.93,0,0,1-7.92-7.74l-1.8-79.3a7.91,7.91,0,0,1,7.92-8.1H251.44a7.92,7.92,0,0,1,7.92,8.13l-2.17,79.31A7.92,7.92,0,0,1,249.27,370.18Z" transform="translate(-51 -25)"/><path class="cls-77" d="M249.27,370.43H152.58a8.22,8.22,0,0,1-8.17-8l-1.8-79.31a8.16,8.16,0,0,1,8.17-8.35H251.44a8.16,8.16,0,0,1,8.17,8.39l-2.17,79.31A8.13,8.13,0,0,1,249.27,370.43Zm-98.49-95.14a7.65,7.65,0,0,0-7.67,7.84l1.8,79.31a7.72,7.72,0,0,0,7.67,7.49h96.69a7.64,7.64,0,0,0,7.67-7.46l2.17-79.3a7.67,7.67,0,0,0-7.67-7.88Z" transform="translate(-51 -25)"/><rect class="cls-13" x="117.92" y="266.26" width="50.85" height="2.18"/><rect class="cls-13" x="117.92" y="271.55" width="25.42" height="2.18"/><rect class="cls-13" x="117.92" y="275.98" width="25.42" height="2.18"/><rect class="cls-13" x="146.2" y="275.98" width="20.23" height="2.18"/><rect class="cls-13" x="117.92" y="280.4" width="40.99" height="2.18"/><rect class="cls-13" x="117.92" y="284.82" width="14.59" height="2.18"/><rect class="cls-13" x="135.51" y="298.08" width="25.23" height="2.18"/><rect class="cls-13" x="117.92" y="289.24" width="45.73" height="2.18"/><rect class="cls-13" x="117.92" y="293.66" width="35.18" height="2.18"/><rect class="cls-13" x="117.92" y="298.08" width="16.55" height="2.18"/><rect class="cls-13" x="117.92" y="302.5" width="25.42" height="2.18"/><rect class="cls-13" x="117.92" y="306.92" width="7.29" height="2.18"/><rect class="cls-13" x="128.22" y="306.92" width="26.46" height="2.18"/><rect class="cls-13" x="135.51" y="311.21" width="25.23" height="2.18"/><rect class="cls-13" x="117.92" y="311.21" width="16.55" height="2.18"/><rect class="cls-13" x="117.92" y="315.63" width="25.42" height="2.18"/><rect class="cls-13" x="117.92" y="320.06" width="7.29" height="2.18"/><rect class="cls-13" x="128.22" y="320.06" width="26.46" height="2.18"/><path class="cls-78" d="M508.72,108.84a4.47,4.47,0,1,1-4.47-4.47A4.47,4.47,0,0,1,508.72,108.84Z" transform="translate(-51 -25)"/><path class="cls-79" d="M89.82,212.48a5.57,5.57,0,1,1-5.56-5.56A5.56,5.56,0,0,1,89.82,212.48Z" transform="translate(-51 -25)"/><circle class="cls-80" cx="466.37" cy="83.84" r="4.47"/><circle class="cls-81" cx="178.2" cy="114.57" r="3.16"/><circle class="cls-82" cx="389.86" cy="254" r="3.16"/><circle class="cls-83" cx="61.34" cy="285.51" r="2.82"/><path class="cls-84" d="M160.49,282.77h-48.8a7.28,7.28,0,0,1-7.27-7l-1.09-32.09a7.28,7.28,0,0,1,7.28-7.53h50.87a7.28,7.28,0,0,1,7.27,7.5l-1,32.1A7.28,7.28,0,0,1,160.49,282.77Z" transform="translate(-51 -25)"/><path class="cls-85" d="M160.49,283h-48.8a7.5,7.5,0,0,1-7.52-7.28l-1.09-32.09a7.55,7.55,0,0,1,7.53-7.79h50.87a7.53,7.53,0,0,1,7.52,7.76l-1,32.1A7.49,7.49,0,0,1,160.49,283Zm-49.88-46.66a7,7,0,0,0-7,7.27l1.09,32.09a7,7,0,0,0,7,6.8h48.8a7,7,0,0,0,7-6.82l1-32.09a7,7,0,0,0-7-7.25Z" transform="translate(-51 -25)"/><polygon class="cls-13" points="73.7 222.64 61.67 236.59 73.93 246.99 73.93 241.62 66.84 235.48 73.42 228.04 73.7 222.64"/><polygon class="cls-13" points="94.85 223.27 106.89 237.21 94.63 247.61 94.63 242.25 101.72 236.11 93.83 227.76 94.85 223.27"/><polygon class="cls-13" points="76.33 246.99 86.81 223.89 91.74 223.89 79.86 246.99 76.33 246.99"/><path class="cls-86" d="M488.82,348.82H427.77a9.1,9.1,0,0,1-9.1-8.8l-1.36-40.15a9.12,9.12,0,0,1,9.11-9.42h63.63a9.12,9.12,0,0,1,9.11,9.39L497.93,340A9.11,9.11,0,0,1,488.82,348.82Z" transform="translate(-51 -25)"/><path class="cls-85" d="M488.82,349.07H427.77a9.32,9.32,0,0,1-9.35-9l-1.36-40.15a9.36,9.36,0,0,1,9.36-9.68h63.63a9.36,9.36,0,0,1,9.36,9.64L498.18,340A9.33,9.33,0,0,1,488.82,349.07Zm-62.4-58.37a8.87,8.87,0,0,0-8.86,9.16L418.92,340a8.82,8.82,0,0,0,8.85,8.56h61.05a8.82,8.82,0,0,0,8.86-8.59l1.23-40.15a8.86,8.86,0,0,0-8.86-9.13Z" transform="translate(-51 -25)"/><rect class="cls-74" x="378.55" y="271.91" width="55.91" height="33.21"/><polygon class="cls-13" points="401.55 280.15 401.55 296.88 415.84 287.75 401.55 280.15"/><rect class="cls-74" x="378.55" y="311.24" width="55.91" height="3.04"/><rect class="cls-13" x="378.55" y="311.24" width="14.47" height="3.04"/><line class="cls-87" x1="346.14" y1="264.61" x2="349.57" y2="262.46"/><path class="cls-88" d="M389.6,287.16" transform="translate(-51 -25)"/><polygon class="cls-89" points="341.58 285.1 334.03 282.64 332.67 278.73 340.22 281.19 341.58 285.1"/><path class="cls-88" d="M374.93,308.53l3.95,1.64-.32-2.49A7.08,7.08,0,0,1,374.93,308.53Z" transform="translate(-51 -25)"/><polygon class="cls-90" points="171.79 11.96 178.2 24.81 173.92 26.76 167.92 14.96 171.79 11.96"/><polygon class="cls-91" points="27.34 311.3 33.27 317.82 35.61 315.13 30 308.96 27.34 311.3"/><polygon class="cls-92" points="329.12 90.37 323.13 94 320.74 89.45 327.27 85.64 329.12 90.37"/><polygon class="cls-92" points="358.56 320.08 349.99 326.17 347.59 321.63 355.91 316.77 358.56 320.08"/><polygon class="cls-93" points="347.24 59.3 345.79 25.64 389.86 25.64 388.05 59.2 347.24 59.3"/><polygon class="cls-94" points="345.79 25.64 344.47 27.62 345.79 59.3 347.24 59.3 345.79 25.64"/><polygon class="cls-13" points="360.42 32.36 353.51 31.62 354.45 54.68 360.42 54.1 360.42 51.71 356.96 51.79 356.57 34.01 360.42 34.12 360.42 32.36"/><polygon class="cls-13" points="374.58 32.36 381.5 31.62 380.55 54.68 374.58 54.1 374.58 51.71 378.04 51.79 378.44 34.01 374.58 34.12 374.58 32.36"/><polygon class="cls-95" points="43.35 132.98 44.34 110.03 14.3 110.03 15.53 132.91 43.35 132.98"/><polygon class="cls-96" points="44.34 110.03 45.24 111.39 44.34 132.98 43.35 132.98 44.34 110.03"/><path class="cls-13" d="M83.77,139.65a20.7,20.7,0,0,1,3.87.14c.58.27-.15,5.64-.15,5.64l1.31,1.2-1.22,1.19s.06,5.44-.71,5.9-3.43,0-3.43,0v-1.36A7.63,7.63,0,0,0,86,152.2c.36-.29.33-5,.33-5l.58-.63-.58-.69s.1-3.39,0-4.32c0-.62-2.56-.65-2.56-.65Z" transform="translate(-51 -25)"/><path class="cls-13" d="M76.22,139.65a20.7,20.7,0,0,0-3.87.14c-.59.27.15,5.64.15,5.64l-1.32,1.2,1.23,1.19s-.06,5.44.71,5.9,3.42,0,3.42,0v-1.36A7.57,7.57,0,0,1,74,152.2c-.36-.29-.33-5-.33-5l-.58-.63.58-.69s-.11-3.39,0-4.32c0-.62,2.56-.65,2.56-.65Z" transform="translate(-51 -25)"/><path class="cls-68" d="M347.86,87.33,340.5,68.06l19.09,4Zm-6.57-18.59L348,86.32l10.7-13.94Z" transform="translate(-51 -25)"/><rect class="cls-68" x="398.19" y="355.71" width="10.94" height="0.5" transform="matrix(0.59, -0.81, 0.81, 0.59, -173.08, 446.08)"/><polygon class="cls-68" points="288.92 254.16 281.97 245.51 282.36 245.2 289.31 253.85 288.92 254.16"/><polygon class="cls-68" points="74.58 314.88 60.72 304.82 61.01 304.42 74.88 314.48 74.58 314.88"/><rect class="cls-68" x="110.23" y="334.4" width="17.13" height="0.5" transform="translate(-270.4 201.36) rotate(-52.7)"/><rect class="cls-68" x="98.59" y="184.72" width="0.5" height="10.14" transform="translate(-166.15 164.01) rotate(-62.28)"/><polygon class="cls-68" points="397.05 46.37 396.68 46.04 407.05 34.21 407.42 34.54 397.05 46.37"/><rect class="cls-68" x="171.13" y="261.73" width="15.54" height="0.5" transform="translate(-177.41 150.82) rotate(-39.91)"/></g><path class="cls-97" d="M95.15,85.52,74.31,90a2.18,2.18,0,0,1-2.6-1.43L62.22,53.34A1.93,1.93,0,0,1,63.81,51l20.83-4.52a2.19,2.19,0,0,1,2.61,1.43l9.49,35.26a2,2,0,0,1-1.59,2.34Z" transform="translate(-51 -25)"/><path class="cls-98" d="M87.25,47.92l9.49,35.26a1.94,1.94,0,0,1-1.59,2.34l-1.9.41a1.94,1.94,0,0,0,1.59-2.34L85.35,48.33a2.18,2.18,0,0,0-2.6-1.43l1.89-.41A2.19,2.19,0,0,1,87.25,47.92Z" transform="translate(-51 -25)"/><path class="cls-99" d="M95.15,85.52,74.31,90a2.18,2.18,0,0,1-2.6-1.43l-.88-3.25,25-5.43.88,3.26A2,2,0,0,1,95.15,85.52Z" transform="translate(-51 -25)"/><path class="cls-99" d="M84.64,46.49,63.81,51a1.93,1.93,0,0,0-1.59,2.33l.88,3.26,25-5.42-.87-3.26A2.19,2.19,0,0,0,84.64,46.49Z" transform="translate(-51 -25)"/><path class="cls-100" d="M95.86,79.92l.88,3.26a1.94,1.94,0,0,1-1.59,2.34l-1.84.4a2,2,0,0,0,1.59-2.34L94,80.32Z" transform="translate(-51 -25)"/><path class="cls-100" d="M87.25,47.92l.87,3.26-1.84.4-.87-3.26a2.19,2.19,0,0,0-2.61-1.43l1.84-.4A2.19,2.19,0,0,1,87.25,47.92Z" transform="translate(-51 -25)"/><path class="cls-100" d="M51.67,53" transform="translate(-51 -25)"/><path class="cls-101" d="M82.63,65,75,66.66a1.19,1.19,0,0,1-1.42-.78l-.21-.77a4.56,4.56,0,0,1,3.76-5.51A5.15,5.15,0,0,1,83.29,63l.2.77A1.05,1.05,0,0,1,82.63,65Z" transform="translate(-51 -25)"/><path class="cls-102" d="M83.29,63l.2.77A1,1,0,0,1,82.63,65l-1.77.39a1.05,1.05,0,0,0,.86-1.28l-.2-.77a4.62,4.62,0,0,0-2.3-2.82,5.5,5.5,0,0,0-2.94-.67,5.66,5.66,0,0,1,4.71.28A4.64,4.64,0,0,1,83.29,63Z" transform="translate(-51 -25)"/><path class="cls-101" d="M84.86,72.77,77,74.48a1.05,1.05,0,0,1-1.25-.69l-1.11-4.14a.92.92,0,0,1,.76-1.12l7.88-1.71a1.06,1.06,0,0,1,1.25.69l1.11,4.14A.92.92,0,0,1,84.86,72.77Z" transform="translate(-51 -25)"/><path class="cls-102" d="M82.47,67l.79-.17a1.06,1.06,0,0,1,1.25.69l1.11,4.14a.92.92,0,0,1-.76,1.12l-.79.17Z" transform="translate(-51 -25)"/><path class="cls-101" d="M79.55,78.11a1.24,1.24,0,0,1-1.49-.81l-.78-2.89,2.4-.52.78,2.89A1.1,1.1,0,0,1,79.55,78.11Z" transform="translate(-51 -25)"/><path class="cls-101" d="M84.43,77.06a1.24,1.24,0,0,1-1.49-.82l-.78-2.89,2.4-.52.77,2.89A1.11,1.11,0,0,1,84.43,77.06Z" transform="translate(-51 -25)"/><path class="cls-102" d="M79.68,73.89l.78,2.89a1.1,1.1,0,0,1-.91,1.33,1.39,1.39,0,0,1-.61,0A1,1,0,0,0,79.31,77l-.77-2.89Z" transform="translate(-51 -25)"/><path class="cls-102" d="M84.56,72.83l.77,2.89a1.11,1.11,0,0,1-.9,1.34,1.39,1.39,0,0,1-.61,0A1,1,0,0,0,84.19,76l-.78-2.89Z" transform="translate(-51 -25)"/><path class="cls-101" d="M88.83,70.22a1.24,1.24,0,0,1-1.49-.81l-.59-2.21a1.1,1.1,0,0,1,.91-1.33,1.24,1.24,0,0,1,1.49.81l.59,2.21A1.1,1.1,0,0,1,88.83,70.22Z" transform="translate(-51 -25)"/><path class="cls-101" d="M72.15,73.84A1.25,1.25,0,0,1,70.66,73l-.59-2.2A1.11,1.11,0,0,1,71,69.48a1.25,1.25,0,0,1,1.49.82l.59,2.2A1.11,1.11,0,0,1,72.15,73.84Z" transform="translate(-51 -25)"/><path class="cls-102" d="M89.15,66.68l.59,2.21a1.1,1.1,0,0,1-.91,1.33,1.34,1.34,0,0,1-.66,0,1,1,0,0,0,.33-1L87.91,67a1.09,1.09,0,0,0-.56-.68.81.81,0,0,0-.27-.11,1.27,1.27,0,0,1,.58-.29,1.29,1.29,0,0,1,.93.13A1.11,1.11,0,0,1,89.15,66.68Z" transform="translate(-51 -25)"/><path class="cls-102" d="M72.47,70.3l.59,2.2a1.11,1.11,0,0,1-.91,1.34,1.33,1.33,0,0,1-.66,0,1.07,1.07,0,0,0,.33-1l-.6-2.2a1.09,1.09,0,0,0-.55-.69,1.53,1.53,0,0,0-.27-.11,1.23,1.23,0,0,1,.58-.29,1.34,1.34,0,0,1,.93.13A1.13,1.13,0,0,1,72.47,70.3Z" transform="translate(-51 -25)"/><path d="M75.18,67.25l7.6-1.65a1.65,1.65,0,0,0,1.37-2l-.21-.78a5.42,5.42,0,0,0-3.74-3.67l.19-.66a.61.61,0,0,0-.48-.74.7.7,0,0,0-.83.44l-.2.7A6.36,6.36,0,0,0,77,59a6.06,6.06,0,0,0-1.74.67l-.55-.55a.73.73,0,0,0-1,0,.56.56,0,0,0,0,.85l.5.51a4.81,4.81,0,0,0-1.46,4.8L73,66a1.86,1.86,0,0,0,2.23,1.23ZM74.05,65a4,4,0,0,1,3.25-4.78,4.47,4.47,0,0,1,5.33,2.92l.21.77a.46.46,0,0,1-.37.55l-7.6,1.64a.51.51,0,0,1-.61-.33Z" transform="translate(-51 -25)"/><path d="M76.46,64.5a.6.6,0,0,0,.49-.73l-.15-.57a.69.69,0,0,0-.81-.45.61.61,0,0,0-.5.74l.15.56A.68.68,0,0,0,76.46,64.5Z" transform="translate(-51 -25)"/><path d="M80.25,63.68a.61.61,0,0,0,.5-.73l-.15-.57a.69.69,0,0,0-.82-.45.62.62,0,0,0-.5.73l.16.57A.67.67,0,0,0,80.25,63.68Z" transform="translate(-51 -25)"/><path d="M76.77,75.11l.63,2.33a1.94,1.94,0,0,0,2.31,1.26,1.71,1.71,0,0,0,1.4-2.06l-.62-2.3,1.17-.26.62,2.3a1.93,1.93,0,0,0,2.3,1.27A1.71,1.71,0,0,0,86,75.58l-.63-2.33a1.5,1.5,0,0,0,.92-1.75l0-.17a.68.68,0,0,0-.81-.45.6.6,0,0,0-.5.73l0,.18a.33.33,0,0,1-.27.39l-.3.07-7.28,1.57-.3.07a.36.36,0,0,1-.43-.24l-1.12-4.14a.33.33,0,0,1,.27-.39l7.87-1.71a.37.37,0,0,1,.44.24l.33,1.21a.68.68,0,0,0,.81.45.6.6,0,0,0,.5-.73l-.33-1.22a1.72,1.72,0,0,0-2.06-1.13l-7.88,1.71A1.53,1.53,0,0,0,74,69.79l1.11,4.14A1.71,1.71,0,0,0,76.77,75.11ZM83,73.8l1.08-.23.62,2.29a.51.51,0,0,1-.41.61.58.58,0,0,1-.68-.37L83,73.8ZM78.1,74.86l1.08-.24.62,2.3a.49.49,0,0,1-.41.6.56.56,0,0,1-.67-.36l-.62-2.3Z" transform="translate(-51 -25)"/><path d="M86.69,69.55A1.92,1.92,0,0,0,89,70.81a1.72,1.72,0,0,0,1.41-2.06l-.6-2.21a1.92,1.92,0,0,0-2.3-1.26,1.72,1.72,0,0,0-1.41,2.06Zm.72-2.49a.49.49,0,0,1,.41-.6.56.56,0,0,1,.67.36L89.08,69a.5.5,0,0,1-.41.61.57.57,0,0,1-.67-.37Z" transform="translate(-51 -25)"/><path d="M72.31,74.43a1.72,1.72,0,0,0,1.41-2.07l-.6-2.21a1.93,1.93,0,0,0-2.3-1.26A1.72,1.72,0,0,0,69.41,71l.6,2.21A1.93,1.93,0,0,0,72.31,74.43Zm-1.58-3.76a.49.49,0,0,1,.41-.6.56.56,0,0,1,.67.37l.59,2.21a.5.5,0,0,1-.41.6.56.56,0,0,1-.67-.37Z" transform="translate(-51 -25)"/><path d="M84.48,45.9,69.36,49.18a.6.6,0,0,0-.5.73.68.68,0,0,0,.81.45L84.8,47.08a1.5,1.5,0,0,1,1.79,1l.72,2.67L63.59,55.87l-.71-2.67A1.32,1.32,0,0,1,64,51.6L66.64,51a.62.62,0,0,0,.5-.73.69.69,0,0,0-.82-.45l-2.67.58a2.55,2.55,0,0,0-2.09,3.07l9.49,35.26a2.87,2.87,0,0,0,3.42,1.87L95.3,86.11A2.55,2.55,0,0,0,97.39,83L87.9,47.78a2.88,2.88,0,0,0-3.42-1.88Zm11.6,37.42A1.33,1.33,0,0,1,95,84.93L74.15,89.44a1.49,1.49,0,0,1-1.78-1l-.72-2.67,23.71-5.14.72,2.67Zm-1-3.84L71.33,84.62,63.91,57.05l23.71-5.14L95,79.48Z" transform="translate(-51 -25)"/><path d="M83.14,86l2.11-.46a.59.59,0,0,0,.5-.73.68.68,0,0,0-.81-.44l-2.12.45a.61.61,0,0,0-.5.74.69.69,0,0,0,.82.44Z" transform="translate(-51 -25)"/><ellipse cx="21.15" cy="26.92" rx="0.9" ry="0.8"/><path d="M78.71,51.12a.6.6,0,0,0,.5-.73.68.68,0,0,0-.81-.45l-3.64.79a.61.61,0,0,0-.5.73.68.68,0,0,0,.82.45Z" transform="translate(-51 -25)"/><path d="M82.83,56.21a.6.6,0,0,0,.5-.73l-.1-.36a.69.69,0,0,0-.81-.45.61.61,0,0,0-.5.74l.1.36A.67.67,0,0,0,82.83,56.21Z" transform="translate(-51 -25)"/><path d="M84.85,55.78a.61.61,0,0,0,.49-.74l-.19-.71a.68.68,0,0,0-.82-.45.6.6,0,0,0-.49.73l.19.72A.7.7,0,0,0,84.85,55.78Z" transform="translate(-51 -25)"/><path d="M86.86,55.34a.61.61,0,0,0,.5-.73l-.29-1.08a.69.69,0,0,0-.82-.45.62.62,0,0,0-.5.73L86,54.89A.69.69,0,0,0,86.86,55.34Z" transform="translate(-51 -25)"/><path class="cls-103" d="M177,55.28v-.89A2.43,2.43,0,0,0,174.57,52h-5.69V37.45a.37.37,0,0,0-.13-.28L158.23,26.65a.37.37,0,0,0-.27-.12H138.35a1.15,1.15,0,0,0-1.15,1.15V66.51a1.14,1.14,0,0,0,1.15,1.15h36.22A2.43,2.43,0,0,0,177,65.24v-.9a2.42,2.42,0,0,0-1.12-2,2.43,2.43,0,0,0,1.12-2v-.89a2.46,2.46,0,0,0-1.12-2,2.43,2.43,0,0,0,1.12-2Z" transform="translate(-51 -25)"/><path class="cls-104" d="M160,63.7v-.89a2,2,0,0,1,2-2,2,2,0,0,1-2-2.05v-.89a2,2,0,0,1,2-2,2,2,0,0,1-2-2v-.9a2,2,0,0,1,2-2H167V35.92L156.42,25.38h-19.6a.77.77,0,0,0-.77.77V65a.77.77,0,0,0,.77.77H162a2,2,0,0,1-2-2Z" transform="translate(-51 -25)"/><path class="cls-105" d="M141.8,49a3.67,3.67,0,0,1-1.28-.64.7.7,0,0,1-.12-1,.42.42,0,0,1,.34-.18,1,1,0,0,1,.47.16,3.28,3.28,0,0,0,1,.52,4.32,4.32,0,0,0,1.19.16,2.31,2.31,0,0,0,1.29-.29,1,1,0,0,0,.45-.86.73.73,0,0,0-.42-.67,5.89,5.89,0,0,0-1.4-.46,8.5,8.5,0,0,1-1.65-.5,2.36,2.36,0,0,1-1-.74,1.9,1.9,0,0,1-.32-1.14,2.08,2.08,0,0,1,.4-1.27,2.67,2.67,0,0,1,1.12-.88,3.91,3.91,0,0,1,1.62-.32,4.06,4.06,0,0,1,2.68.87,1.27,1.27,0,0,1,.21.25.66.66,0,0,1,.06.31.71.71,0,0,1-.14.42.46.46,0,0,1-.34.18.49.49,0,0,1-.21,0,2.06,2.06,0,0,1-.26-.12,3.64,3.64,0,0,0-.92-.52,3,3,0,0,0-1.08-.16,2.07,2.07,0,0,0-1.24.31,1,1,0,0,0-.45.88.81.81,0,0,0,.4.73,5,5,0,0,0,1.37.47,9.65,9.65,0,0,1,1.66.51,2.41,2.41,0,0,1,1,.72,1.77,1.77,0,0,1,.34,1.09,2.19,2.19,0,0,1-.4,1.26,2.62,2.62,0,0,1-1.12.85,4.21,4.21,0,0,1-1.65.31A6,6,0,0,1,141.8,49Z" transform="translate(-51 -25)"/><path class="cls-105" d="M154.64,50.24a.72.72,0,0,1,.12.4.51.51,0,0,1-.2.43.79.79,0,0,1-.49.17.9.9,0,0,1-.39-.1.83.83,0,0,1-.3-.29l-.67-1.12a1.05,1.05,0,0,0-.42-.39,1.75,1.75,0,0,0-.68-.13,4,4,0,0,1-2.05-.5,3.47,3.47,0,0,1-1.34-1.45,5.38,5.38,0,0,1,0-4.41,3.39,3.39,0,0,1,1.34-1.44,4,4,0,0,1,2.05-.51,3.92,3.92,0,0,1,2,.51A3.38,3.38,0,0,1,155,42.85a4.93,4.93,0,0,1,.48,2.2,4.79,4.79,0,0,1-.55,2.35,3.19,3.19,0,0,1-1.56,1.43,1.72,1.72,0,0,1,.88.76Zm-1.28-3a4.23,4.23,0,0,0,0-4.41,2.39,2.39,0,0,0-3.5,0,4.17,4.17,0,0,0,0,4.41,2.37,2.37,0,0,0,3.5,0Z" transform="translate(-51 -25)"/><path class="cls-105" d="M157.14,48.93a.73.73,0,0,1-.18-.51V41.68a.68.68,0,0,1,.64-.73h.1a.73.73,0,0,1,.54.2.71.71,0,0,1,.2.54v6.2h3.23c.46,0,.69.21.69.61s-.23.61-.69.61h-4a.71.71,0,0,1-.52-.18Z" transform="translate(-51 -25)"/><path class="cls-13" d="M136.82,26.53h20.75l-1.15-1.15h-19.6a.77.77,0,0,0-.77.77V27.3A.77.77,0,0,1,136.82,26.53Z" transform="translate(-51 -25)"/><path class="cls-106" d="M156.42,25.38v9.77a.77.77,0,0,0,.77.77H167Z" transform="translate(-51 -25)"/><rect class="cls-105" x="109" y="35.77" width="15.08" height="4.98" rx="2.04" ry="2.04"/><path class="cls-107" d="M170.24,62.6a.66.66,0,1,0,0,1.32.67.67,0,0,0,.66-.66h0A.66.66,0,0,0,170.24,62.6Z" transform="translate(-51 -25)"/><path class="cls-107" d="M172.6,62.6a.66.66,0,1,0,0,1.32.67.67,0,0,0,.66-.66h0a.66.66,0,0,0-.66-.66Z" transform="translate(-51 -25)"/><rect class="cls-105" x="109" y="30.79" width="15.08" height="4.98" rx="2.04" ry="2.04"/><path class="cls-107" d="M170.24,57.62a.66.66,0,0,0,0,1.32.67.67,0,0,0,.66-.66h0A.66.66,0,0,0,170.24,57.62Z" transform="translate(-51 -25)"/><path class="cls-107" d="M172.6,57.62a.66.66,0,0,0,0,1.32.67.67,0,0,0,.66-.66h0a.66.66,0,0,0-.66-.66Z" transform="translate(-51 -25)"/><rect class="cls-105" x="109" y="25.81" width="15.08" height="4.98" rx="2.04" ry="2.04"/><path class="cls-108" d="M144.52,47.42a2.13,2.13,0,0,1-1.08.23,4,4,0,0,1-1.09-.15,3,3,0,0,1-.94-.48,1.32,1.32,0,0,0-.67-.21.81.81,0,0,0-.64.32,1.09,1.09,0,0,0,.18,1.51,4.14,4.14,0,0,0,1.41.7,6.34,6.34,0,0,0,1.78.26,4.69,4.69,0,0,0,1.81-.34,3,3,0,0,0,1.27-1A2.46,2.46,0,0,0,147,46.8a2.07,2.07,0,0,0-.42-1.33,2.92,2.92,0,0,0-1.13-.83,9.94,9.94,0,0,0-1.73-.54,4.1,4.1,0,0,1-1.25-.42.43.43,0,0,1-.22-.4.62.62,0,0,1,.29-.56,1.74,1.74,0,0,1,1-.25,2.81,2.81,0,0,1,.95.14,3.67,3.67,0,0,1,.82.46l0,0a1.87,1.87,0,0,0,.32.15,1,1,0,0,0,.34.06.81.81,0,0,0,.64-.32,1.06,1.06,0,0,0,.23-.66,1.17,1.17,0,0,0-.11-.49,1.19,1.19,0,0,0-.31-.36,4.39,4.39,0,0,0-2.92-1,4.3,4.3,0,0,0-1.77.35,3.07,3.07,0,0,0-1.28,1,2.52,2.52,0,0,0-.47,1.5,2.25,2.25,0,0,0,.39,1.36,2.78,2.78,0,0,0,1.11.87,9.26,9.26,0,0,0,1.72.53,5.38,5.38,0,0,1,1.29.41.35.35,0,0,1,.22.34.59.59,0,0,1-.27.54Zm.42-1.55a6,6,0,0,0-1.5-.49,8.29,8.29,0,0,1-1.56-.48,2,2,0,0,1-.81-.61,1.63,1.63,0,0,1-.25-.92,1.81,1.81,0,0,1,.33-1,2.32,2.32,0,0,1,1-.75,3.49,3.49,0,0,1,1.46-.28,3.62,3.62,0,0,1,2.43.78.37.37,0,0,1,.12.13.27.27,0,0,1,0,.13.3.3,0,0,1-.06.18l0,0H146a.56.56,0,0,1-.17-.09,4.34,4.34,0,0,0-1-.54,3.4,3.4,0,0,0-1.22-.2,2.51,2.51,0,0,0-1.46.39,1.4,1.4,0,0,0-.62,1.19,1.21,1.21,0,0,0,.58,1,5,5,0,0,0,1.49.52,8.62,8.62,0,0,1,1.59.49,2.09,2.09,0,0,1,.83.6,1.39,1.39,0,0,1,.26.86,1.66,1.66,0,0,1-.32,1,2.23,2.23,0,0,1-1,.73,3.8,3.8,0,0,1-1.5.27,5.5,5.5,0,0,1-1.56-.22,3.17,3.17,0,0,1-1.16-.58.25.25,0,0,1-.11-.24.28.28,0,0,1,.06-.18.14.14,0,0,1,0,0,.5.5,0,0,1,.24.09,3.89,3.89,0,0,0,1.15.58,4.49,4.49,0,0,0,1.31.17,2.73,2.73,0,0,0,1.5-.35,1.36,1.36,0,0,0,.62-1.18,1.12,1.12,0,0,0-.62-1Z" transform="translate(-51 -25)"/><path class="cls-108" d="M155.25,47.59a5.09,5.09,0,0,0,.6-2.54,5.25,5.25,0,0,0-.51-2.37,3.78,3.78,0,0,0-1.49-1.6,4.74,4.74,0,0,0-4.48,0,3.78,3.78,0,0,0-1.49,1.6,5.79,5.79,0,0,0,0,4.75A3.86,3.86,0,0,0,149.37,49a4.42,4.42,0,0,0,2.25.56,1.22,1.22,0,0,1,.5.08.63.63,0,0,1,.26.25l.67,1.11a1.19,1.19,0,0,0,.45.44,1.3,1.3,0,0,0,.57.14,1.19,1.19,0,0,0,.73-.25.93.93,0,0,0,.35-.73A1.18,1.18,0,0,0,155,50h0l-.4-.64a2.37,2.37,0,0,0-.44-.55,3.69,3.69,0,0,0,1.13-1.26Zm-2,.89a.39.39,0,0,0-.2.51.4.4,0,0,0,.23.21,1.23,1.23,0,0,1,.67.6l.4.64a.37.37,0,0,1,.07.2.16.16,0,0,1-.06.13.43.43,0,0,1-.46,0,.43.43,0,0,1-.15-.15L153,49.53a1.41,1.41,0,0,0-.58-.53,1.86,1.86,0,0,0-.84-.17,3.66,3.66,0,0,1-1.86-.45,3,3,0,0,1-1.18-1.29,5,5,0,0,1,0-4.07,3,3,0,0,1,1.19-1.28,4,4,0,0,1,3.7,0A3,3,0,0,1,154.65,43a4.47,4.47,0,0,1,.43,2,4.41,4.41,0,0,1-.5,2.17,2.84,2.84,0,0,1-1.37,1.26Z" transform="translate(-51 -25)"/><path class="cls-108" d="M151.61,41.7a2.54,2.54,0,0,0-2.05.91,4.56,4.56,0,0,0,0,4.89,2.51,2.51,0,0,0,2.05.91,2.47,2.47,0,0,0,2-.91,3.77,3.77,0,0,0,.72-2.45,3.81,3.81,0,0,0-.72-2.44,2.5,2.5,0,0,0-2-.91ZM153.06,47a2,2,0,0,1-2.9,0,3.85,3.85,0,0,1,0-3.93,2,2,0,0,1,2.9,0,3.85,3.85,0,0,1,0,3.93Z" transform="translate(-51 -25)"/><path class="cls-108" d="M158.51,40.88a1.12,1.12,0,0,0-1.59,0,1.08,1.08,0,0,0-.34.83v6.74a1,1,0,0,0,.29.78,1.05,1.05,0,0,0,.79.29h4a1,1,0,0,0,.18-2h-3V41.68A1.13,1.13,0,0,0,158.51,40.88Zm3.16,7.39c.31,0,.31.09.31.23s0,.23-.31.23h-4a.27.27,0,0,1-.32-.31V41.68a.32.32,0,0,1,.27-.35h.09a.33.33,0,0,1,.27.09.32.32,0,0,1,.09.26v6.21a.39.39,0,0,0,.38.39Z" transform="translate(-51 -25)"/><path class="cls-108" d="M136.05,57.6a.38.38,0,0,0,.38-.39V53.57a.38.38,0,0,0-.76,0v3.64A.38.38,0,0,0,136.05,57.6Z" transform="translate(-51 -25)"/><path class="cls-108" d="M175.47,53.75v-.9A2.43,2.43,0,0,0,173,50.43h-5.7V35.92a.4.4,0,0,0-.12-.29L156.69,25.11a.39.39,0,0,0-.27-.11h-19.6a1.14,1.14,0,0,0-1.15,1.15v25.7a.38.38,0,0,0,.76,0V26.15a.38.38,0,0,1,.39-.38H156v9.38a1.14,1.14,0,0,0,1.15,1.15h9.39V50.43H162a2.42,2.42,0,0,0-2.42,2.42v.9a2.4,2.4,0,0,0,1.12,2,2.4,2.4,0,0,0-1.12,2v.89a2.42,2.42,0,0,0,1.12,2.05,2.4,2.4,0,0,0-1.12,2v.89a2.39,2.39,0,0,0,.66,1.66H136.82a.38.38,0,0,1-.39-.38V58.81a.38.38,0,0,0-.76,0V65a1.14,1.14,0,0,0,1.15,1.15H173a2.43,2.43,0,0,0,2.43-2.43v-.89a2.41,2.41,0,0,0-1.13-2,2.41,2.41,0,0,0,1.13-2v-.9a2.41,2.41,0,0,0-1.13-2,2.41,2.41,0,0,0,1.13-2ZM156.8,35.15V26.31L166,35.54h-8.84a.38.38,0,0,1-.38-.39Zm17.9,27.66v.89A1.66,1.66,0,0,1,173,65.36H162a1.66,1.66,0,0,1-1.66-1.66v-.89A1.66,1.66,0,0,1,162,61.15h11a1.66,1.66,0,0,1,1.66,1.66Zm0-5v.89A1.66,1.66,0,0,1,173,60.38H162a1.66,1.66,0,0,1-1.66-1.66v-.89A1.67,1.67,0,0,1,162,56.17h11a1.66,1.66,0,0,1,1.66,1.66Zm0-4.08A1.67,1.67,0,0,1,173,55.41H162a1.68,1.68,0,0,1-1.66-1.66v-.9A1.68,1.68,0,0,1,162,51.19h11a1.67,1.67,0,0,1,1.66,1.66Z" transform="translate(-51 -25)"/><path class="cls-107" d="M170.24,52.64a.66.66,0,1,0,.66.66h0A.67.67,0,0,0,170.24,52.64Z" transform="translate(-51 -25)"/><path class="cls-107" d="M172.6,52.64a.66.66,0,1,0,.66.66h0A.67.67,0,0,0,172.6,52.64Z" transform="translate(-51 -25)"/><path class="cls-103" d="M561.73,300.5l-7.34-17.34a.51.51,0,0,0-.26-.26l-23-9.31a1.46,1.46,0,0,0-1.9.8l-18.45,45.55a1.46,1.46,0,0,0,.8,1.9l34.47,14a1.46,1.46,0,0,0,1.89-.8l13.81-34.1A.47.47,0,0,0,561.73,300.5Z" transform="translate(-51 -25)"/><path class="cls-104" d="M560.23,298.2l-7.35-17.37-23-9.32a1,1,0,0,0-1.26.54L510.16,317.6a1,1,0,0,0,.53,1.26l34.47,14a1,1,0,0,0,1.26-.53l13.81-34.09Z" transform="translate(-51 -25)"/><path class="cls-106" d="M514.1,307.86l-3.94,9.74a1,1,0,0,0,.53,1.26l34.47,14a1,1,0,0,0,1.26-.53l4-9.74Z" transform="translate(-51 -25)"/><path class="cls-13" d="M529.33,272.86l24.35,9.86-.8-1.89-23-9.32a1,1,0,0,0-1.26.54l-.55,1.34A1,1,0,0,1,529.33,272.86Z" transform="translate(-51 -25)"/><path class="cls-106" d="M552.88,280.83l-4.65,11.46a1,1,0,0,0,.54,1.26l11.46,4.65Z" transform="translate(-51 -25)"/><path class="cls-107" d="M549.11,302.86l-1.8-.73-.73,1.8,1.8.73a1.33,1.33,0,0,1-1,2.47l-1.93-.78a8.07,8.07,0,0,1-1.28,1.57l2.48,1a3.27,3.27,0,1,0,2.46-6.07Z" transform="translate(-51 -25)"/><path class="cls-107" d="M533.43,308.76l3.51,1.42a8.48,8.48,0,0,0,9.21-5.19l1.17-2.87a1.45,1.45,0,0,0-.79-1.88h0L533.46,295a1.45,1.45,0,0,0-1.88.79h0l-1.16,2.88a8.49,8.49,0,0,0,3,10.14Z" transform="translate(-51 -25)"/><path class="cls-105" d="M525,305.35a2.84,2.84,0,0,0,1.57,3.7l15.07,6.11a2.84,2.84,0,0,0,3.7-1.57Z" transform="translate(-51 -25)"/><path class="cls-108" d="M524.51,315.36a.42.42,0,0,0-.58.2l0,.05-1.22,3a.76.76,0,0,1-.34.43.6.6,0,0,1-.49,0l-.22-.08a.51.51,0,0,0-.3,0,.38.38,0,0,0-.19.22c-.1.25,0,.44.37.57l.23.07a1.31,1.31,0,0,0,1.74-.65,1.72,1.72,0,0,0,.07-.21l1.22-3a.44.44,0,0,0,0-.37.46.46,0,0,0-.27-.24Z" transform="translate(-51 -25)"/><path class="cls-108" d="M528.3,317.21a.42.42,0,0,0-.1-.28.57.57,0,0,0-.53-.22.46.46,0,0,0-.27.13l-3.48,3.25a.36.36,0,0,0-.11.16.34.34,0,0,0,0,.31.53.53,0,0,0,.24.23.36.36,0,0,0,.23,0,.32.32,0,0,0,.22-.12l.77-.74,2.38,1,0,1.06a.41.41,0,0,0,.25.38.47.47,0,0,0,.33,0,.35.35,0,0,0,.23-.21.34.34,0,0,0,0-.2Zm-2.44,2.19,1.7-1.64.08,2.36Z" transform="translate(-51 -25)"/><path class="cls-108" d="M534.63,319.89a.38.38,0,0,0,0-.33.51.51,0,0,0-.25-.23.41.41,0,0,0-.46.09L531,322.23l-.16-4.07a.38.38,0,0,0-.08-.23.45.45,0,0,0-.19-.15.63.63,0,0,0-.36,0,.37.37,0,0,0-.25.22.37.37,0,0,0,0,.18l.23,4.78a.45.45,0,0,0,.1.27.61.61,0,0,0,.54.22.5.5,0,0,0,.26-.13l3.5-3.26a.42.42,0,0,0,.11-.15Z" transform="translate(-51 -25)"/><path class="cls-108" d="M537.22,320.82a.48.48,0,0,0-.1-.28.59.59,0,0,0-.54-.22.5.5,0,0,0-.26.13l-3.49,3.25a.64.64,0,0,0-.11.16.37.37,0,0,0,0,.31.53.53,0,0,0,.24.23.4.4,0,0,0,.24,0,.35.35,0,0,0,.22-.12l.77-.74,2.37,1,0,1.06a.4.4,0,0,0,.26.38.47.47,0,0,0,.33,0,.37.37,0,0,0,.23-.21.63.63,0,0,0,0-.19ZM534.78,323l1.7-1.64.08,2.36Z" transform="translate(-51 -25)"/><path class="cls-108" d="M560.67,298l-7.35-17.34a.47.47,0,0,0-.26-.26l-23-9.32a1.46,1.46,0,0,0-1.9.8l-3.11,7.68a.48.48,0,1,0,.9.36l3.11-7.67a.48.48,0,0,1,.63-.27l22.55,9.13-4.46,11a1.45,1.45,0,0,0,.81,1.89l11,4.46-9.5,23.46-35.36-14.33,7.9-19.52a.48.48,0,0,0-.26-.63.49.49,0,0,0-.63.26l-12,29.72a1.46,1.46,0,0,0,.8,1.89l34.47,14a1.44,1.44,0,0,0,1.89-.8l13.81-34.09a.51.51,0,0,0,0-.4Zm-12-5.51,4.21-10.38,6.44,15.22L549,293.1A.48.48,0,0,1,548.68,292.47Zm-3.34,39.9-34.46-14a.48.48,0,0,1-.27-.63l3.76-9.29,35.37,14.33L546,332.11a.49.49,0,0,1-.63.26Z" transform="translate(-51 -25)"/><path class="cls-108" d="M522.77,286.46a.48.48,0,0,0,.63-.27l1.73-4.27a.49.49,0,0,0-.26-.63.49.49,0,0,0-.64.27l-1.73,4.27A.48.48,0,0,0,522.77,286.46Z" transform="translate(-51 -25)"/><path class="cls-108" d="M524.56,305.17a3.32,3.32,0,0,0,1.84,4.33l15.07,6.11a3.33,3.33,0,0,0,4.33-1.84.49.49,0,0,0-.26-.63l-6-2.45a9,9,0,0,0,4.78-2.2l2.2.89a3.76,3.76,0,0,0,2.82-7l-1.41-.57a1.92,1.92,0,0,0-1.17-2l-13.07-5.29a1.93,1.93,0,0,0-2.51,1.06L530,298.44a9,9,0,0,0,1.27,8.91l-6-2.45a.48.48,0,0,0-.63.27Zm22.29-.61,1.35.55a.86.86,0,0,1,.47,1.1.85.85,0,0,1-1.11.47l-1.41-.57a8,8,0,0,0,.45-.93Zm3.61,2.38a2.78,2.78,0,0,1-3.63,1.54l-1.82-.74v0a7.73,7.73,0,0,0,.62-.77l1.56.63a1.82,1.82,0,0,0,1.36-3.37l-1.35-.55.37-.9,1.35.55a2.79,2.79,0,0,1,1.53,3.63Zm-19.59-8.14,1.16-2.87a1,1,0,0,1,1.25-.53l13.06,5.29a1,1,0,0,1,.53,1.24l-1.17,2.88a8,8,0,0,1-8.64,4.9l-3.39-1.38a8,8,0,0,1-2.8-9.53Zm13.81,15a2.37,2.37,0,0,1-2.85.87l-15.07-6.11a2.37,2.37,0,0,1-1.44-2.6Z" transform="translate(-51 -25)"/><path class="cls-108" d="M544.28,292.4c1.5-.67,3.37-1.5,3.23-3.86a2.89,2.89,0,0,0-1.2-2.15,2.75,2.75,0,0,0-2.32-.45,2.19,2.19,0,0,0-1.48,1.33,2.33,2.33,0,0,0,.12,2.12,1.36,1.36,0,0,0,1.56.53.49.49,0,0,0,.3-.62.48.48,0,0,0-.6-.3.43.43,0,0,1-.46-.15,1.43,1.43,0,0,1,0-1.18,1.25,1.25,0,0,1,.84-.8,1.77,1.77,0,0,1,1.51.31,1.89,1.89,0,0,1,.8,1.41c.09,1.58-.94,2.16-2.66,2.92a7.27,7.27,0,0,0-2.18,1.28,5.65,5.65,0,0,0-1.41,3.13.48.48,0,0,0,.3.53.19.19,0,0,0,.1,0,.47.47,0,0,0,.56-.4h0a4.63,4.63,0,0,1,1.14-2.6,6.23,6.23,0,0,1,1.89-1.08Z" transform="translate(-51 -25)"/><path class="cls-108" d="M538.92,291a.49.49,0,0,0,.62.29,1.55,1.55,0,0,0,.91-1.11,1.47,1.47,0,0,0-.28-1.31,1.8,1.8,0,0,0-1.42-.65,1.85,1.85,0,0,0-1.45.67c-1,1.18-.3,2.33.18,3.17a3.37,3.37,0,0,1,.5,1.09,2.57,2.57,0,0,1-.33,1.51.48.48,0,0,0,.21.65h0a.48.48,0,0,0,.62-.23,3.53,3.53,0,0,0,.42-2.09,4.44,4.44,0,0,0-.62-1.43c-.52-.89-.79-1.43-.27-2.06a.86.86,0,0,1,.7-.32.83.83,0,0,1,.67.3.5.5,0,0,1,.08.49.64.64,0,0,1-.3.4A.48.48,0,0,0,538.92,291Z" transform="translate(-51 -25)"/><g id="Layer_27" data-name="Layer 27"><path class="cls-109" d="M158.28,188.82V149a3.38,3.38,0,0,0-3.37-3.37H127.47l-13.79,13.78v29.39Z" transform="translate(-51 -25)"/><path class="cls-110" d="M113.68,188.82v14.09a3.39,3.39,0,0,0,3.38,3.37h37.85a3.37,3.37,0,0,0,3.37-3.37V188.82Z" transform="translate(-51 -25)"/><path d="M134.75,193.15h-1.12a.15.15,0,0,0-.14.14v6.42a1,1,0,0,1-1.1,1.15c-.86,0-1.21-.61-1.21-1.48a.13.13,0,0,0-.13-.14h-1.12a.13.13,0,0,0-.13.14,2.49,2.49,0,0,0,2.64,2.77,2.25,2.25,0,0,0,2.44-2.44v-6.42A.14.14,0,0,0,134.75,193.15Z" transform="translate(-51 -25)"/><path d="M137.75,196.14a1.21,1.21,0,0,1,1.11-1.93,1.48,1.48,0,0,1,1.55,1.19.15.15,0,0,0,.14.11h1.2a.13.13,0,0,0,.13-.16,2.73,2.73,0,0,0-3-2.31,2.79,2.79,0,0,0-2.47,1.15,2.52,2.52,0,0,0,0,2.6c1.19,1.63,4.19,1.06,4.19,2.93a1.22,1.22,0,0,1-1.38,1.26,1.58,1.58,0,0,1-1.69-1.4.14.14,0,0,0-.14-.12h-1.19a.13.13,0,0,0-.13.15,2.94,2.94,0,0,0,3.18,2.54,2.51,2.51,0,0,0,2.81-2.47c0-2.85-3.3-2.33-4.32-3.54Z" transform="translate(-51 -25)"/><path d="M154.91,207H117.06a4.06,4.06,0,0,1-4.06-4.06V188.82a.69.69,0,1,1,1.37,0v14.09a2.69,2.69,0,0,0,2.69,2.69h37.85a2.7,2.7,0,0,0,2.69-2.69V188.82a.69.69,0,1,1,1.37,0v14.09A4.06,4.06,0,0,1,154.91,207Z" transform="translate(-51 -25)"/><path class="cls-110" d="M113.68,159.43h10.41a3.39,3.39,0,0,0,3.38-3.37V145.65Z" transform="translate(-51 -25)"/><path class="cls-111" d="M165.5,178.3a2.82,2.82,0,0,0-2.25,2.2.05.05,0,0,1-.1,0,2.81,2.81,0,0,0-2.24-2.2,0,0,0,1,1,0-.09,2.79,2.79,0,0,0,2.24-2.2.05.05,0,0,1,.1,0,2.81,2.81,0,0,0,2.25,2.2A0,0,0,0,1,165.5,178.3Z" transform="translate(-51 -25)"/><path class="cls-110" d="M136.92,210.76a2,2,0,0,0-1.57,1.54,0,0,0,0,1-.07,0,2,2,0,0,0-1.58-1.54,0,0,0,0,1,0-.07,2,2,0,0,0,1.58-1.54,0,0,0,0,1,.07,0,2,2,0,0,0,1.57,1.54A0,0,0,0,1,136.92,210.76Z" transform="translate(-51 -25)"/><circle class="cls-110" cx="73.5" cy="118.26" r="0.92"/><circle class="cls-112" cx="110.96" cy="145.33" r="0.92"/><path class="cls-113" d="M119.16,145.27h-.5v-.49a.68.68,0,1,0-1.35,0v.49h-.5a.68.68,0,1,0,0,1.36h.5v.5a.68.68,0,0,0,1.35,0v-.5h.5a.68.68,0,0,0,0-1.36Z" transform="translate(-51 -25)"/><circle class="cls-111" cx="77.16" cy="184.5" r="0.92"/><path d="M158.28,189.5h-44.6a.68.68,0,0,1-.68-.68V159.43a.67.67,0,0,1,.2-.48L127,145.17a.68.68,0,0,1,.49-.2h27.44A4.06,4.06,0,0,1,159,149v39.8A.68.68,0,0,1,158.28,189.5Zm-43.91-1.37H157.6V149a2.7,2.7,0,0,0-2.69-2.69H127.75l-13.38,13.38Z" transform="translate(-51 -25)"/><path d="M124.09,160.11H113.88a.68.68,0,1,1,0-1.36h10.21a2.7,2.7,0,0,0,2.69-2.69V145.92a.69.69,0,0,1,1.37,0v10.14A4.06,4.06,0,0,1,124.09,160.11Z" transform="translate(-51 -25)"/><path class="cls-110" d="M147.3,171.34,141.45,167a1.32,1.32,0,1,0-1.58,2.11l4.44,3.34-4.44,3.33a1.32,1.32,0,0,0,1.58,2.12l5.85-4.4a1.32,1.32,0,0,0,0-2.11Z" transform="translate(-51 -25)"/><path class="cls-110" d="M132.34,175.73l-4.44-3.33,4.44-3.34a1.32,1.32,0,1,0-1.58-2.11l-5.85,4.39a1.3,1.3,0,0,0-.53,1.06,1.28,1.28,0,0,0,.53,1l5.85,4.4a1.32,1.32,0,0,0,1.58-2.12Z" transform="translate(-51 -25)"/><path class="cls-110" d="M138.59,165.24a1.33,1.33,0,0,0-1.69.81l-4.18,11.81a1.32,1.32,0,0,0,.8,1.69,1.33,1.33,0,0,0,1.69-.81l4.18-11.81A1.33,1.33,0,0,0,138.59,165.24Z" transform="translate(-51 -25)"/><path d="M140.66,178.79a2,2,0,0,1-1.2-3.6l3.71-2.79-3.71-2.8a2,2,0,0,1,2.4-3.2l5.85,4.39a2,2,0,0,1,0,3.21l-5.85,4.39a2,2,0,0,1-1.2.4Zm0-11.43h-.09a.64.64,0,0,0-.29,1.14l4.44,3.34a.69.69,0,0,1,0,1.09l-4.44,3.34a.64.64,0,0,0,.76,1l5.85-4.39a.65.65,0,0,0,.25-.51.62.62,0,0,0-.25-.51l-5.85-4.4a.65.65,0,0,0-.38-.13Z" transform="translate(-51 -25)"/><path d="M131.55,178.79a2,2,0,0,1-1.2-.4L124.5,174a2,2,0,0,1,0-3.21l5.85-4.39a2,2,0,0,1,3.19,1.88,2,2,0,0,1-.78,1.32L129,172.4l3.72,2.79a2,2,0,0,1,.78,1.32,2,2,0,0,1-.39,1.48,2,2,0,0,1-1.32.78A1.32,1.32,0,0,1,131.55,178.79Zm0-11.43a.65.65,0,0,0-.38.13l-5.85,4.4a.64.64,0,0,0,0,1l5.85,4.4a.65.65,0,0,0,.47.12.64.64,0,0,0,.29-1.14l-4.44-3.34a.69.69,0,0,1,0-1.09l4.44-3.34a.64.64,0,0,0-.29-1.14Z" transform="translate(-51 -25)"/><path d="M134,180.31a2,2,0,0,1-.67-.12,2,2,0,0,1-1.22-2.56l4.19-11.81a2,2,0,1,1,3.77,1.34L135.85,179A2,2,0,0,1,134,180.31Zm4.19-14.46a.66.66,0,0,0-.61.43l-4.18,11.81a.64.64,0,0,0,1.2.43l4.19-11.82a.64.64,0,0,0-.39-.81A.52.52,0,0,0,138.15,165.85Z" transform="translate(-51 -25)"/></g></g></g></svg>